<mxfile host="Electron" modified="2023-09-13T15:37:36.031Z" agent="Mozilla/5.0 (Windows NT 10.0; Win64; x64) AppleWebKit/537.36 (KHTML, like Gecko) draw.io/21.5.0 Chrome/112.0.5615.204 Electron/24.5.1 Safari/537.36" etag="82zQPG8booocSU74RPo1" version="21.5.0" type="device">
  <diagram name="Page-1" id="Zewn9OOYctKe4t_v5cmS">
    <mxGraphModel dx="2249" dy="1944" grid="1" gridSize="10" guides="1" tooltips="1" connect="1" arrows="1" fold="1" page="1" pageScale="1" pageWidth="850" pageHeight="1100" math="0" shadow="0">
      <root>
        <mxCell id="0" />
        <mxCell id="1" parent="0" />
        <mxCell id="8bt0EGpzoLc2UHUZODhH-1" value="Viec Lam Model" style="swimlane;fontStyle=1;align=center;verticalAlign=top;childLayout=stackLayout;horizontal=1;startSize=26;horizontalStack=0;resizeParent=1;resizeParentMax=0;resizeLast=0;collapsible=1;marginBottom=0;whiteSpace=wrap;html=1;" vertex="1" parent="1">
          <mxGeometry x="-170" y="330" width="160" height="658" as="geometry" />
        </mxCell>
        <mxCell id="8bt0EGpzoLc2UHUZODhH-18" value="+ MAVL" style="text;strokeColor=none;fillColor=none;align=left;verticalAlign=top;spacingLeft=4;spacingRight=4;overflow=hidden;rotatable=0;points=[[0,0.5],[1,0.5]];portConstraint=eastwest;whiteSpace=wrap;html=1;" vertex="1" parent="8bt0EGpzoLc2UHUZODhH-1">
          <mxGeometry y="26" width="160" height="26" as="geometry" />
        </mxCell>
        <mxCell id="8bt0EGpzoLc2UHUZODhH-2" value="+ Chucvu" style="text;strokeColor=none;fillColor=none;align=left;verticalAlign=top;spacingLeft=4;spacingRight=4;overflow=hidden;rotatable=0;points=[[0,0.5],[1,0.5]];portConstraint=eastwest;whiteSpace=wrap;html=1;" vertex="1" parent="8bt0EGpzoLc2UHUZODhH-1">
          <mxGeometry y="52" width="160" height="26" as="geometry" />
        </mxCell>
        <mxCell id="8bt0EGpzoLc2UHUZODhH-5" value="+ Soluongtuyen" style="text;strokeColor=none;fillColor=none;align=left;verticalAlign=top;spacingLeft=4;spacingRight=4;overflow=hidden;rotatable=0;points=[[0,0.5],[1,0.5]];portConstraint=eastwest;whiteSpace=wrap;html=1;" vertex="1" parent="8bt0EGpzoLc2UHUZODhH-1">
          <mxGeometry y="78" width="160" height="26" as="geometry" />
        </mxCell>
        <mxCell id="8bt0EGpzoLc2UHUZODhH-6" value="+ Ngaydang" style="text;strokeColor=none;fillColor=none;align=left;verticalAlign=top;spacingLeft=4;spacingRight=4;overflow=hidden;rotatable=0;points=[[0,0.5],[1,0.5]];portConstraint=eastwest;whiteSpace=wrap;html=1;" vertex="1" parent="8bt0EGpzoLc2UHUZODhH-1">
          <mxGeometry y="104" width="160" height="26" as="geometry" />
        </mxCell>
        <mxCell id="8bt0EGpzoLc2UHUZODhH-11" value="+ Ngayhethan" style="text;strokeColor=none;fillColor=none;align=left;verticalAlign=top;spacingLeft=4;spacingRight=4;overflow=hidden;rotatable=0;points=[[0,0.5],[1,0.5]];portConstraint=eastwest;whiteSpace=wrap;html=1;" vertex="1" parent="8bt0EGpzoLc2UHUZODhH-1">
          <mxGeometry y="130" width="160" height="26" as="geometry" />
        </mxCell>
        <mxCell id="8bt0EGpzoLc2UHUZODhH-12" value="+ MotaCV" style="text;strokeColor=none;fillColor=none;align=left;verticalAlign=top;spacingLeft=4;spacingRight=4;overflow=hidden;rotatable=0;points=[[0,0.5],[1,0.5]];portConstraint=eastwest;whiteSpace=wrap;html=1;" vertex="1" parent="8bt0EGpzoLc2UHUZODhH-1">
          <mxGeometry y="156" width="160" height="26" as="geometry" />
        </mxCell>
        <mxCell id="8bt0EGpzoLc2UHUZODhH-14" value="+ Luong" style="text;strokeColor=none;fillColor=none;align=left;verticalAlign=top;spacingLeft=4;spacingRight=4;overflow=hidden;rotatable=0;points=[[0,0.5],[1,0.5]];portConstraint=eastwest;whiteSpace=wrap;html=1;" vertex="1" parent="8bt0EGpzoLc2UHUZODhH-1">
          <mxGeometry y="182" width="160" height="26" as="geometry" />
        </mxCell>
        <mxCell id="8bt0EGpzoLc2UHUZODhH-13" value="+ Quanlynhansu" style="text;strokeColor=none;fillColor=none;align=left;verticalAlign=top;spacingLeft=4;spacingRight=4;overflow=hidden;rotatable=0;points=[[0,0.5],[1,0.5]];portConstraint=eastwest;whiteSpace=wrap;html=1;" vertex="1" parent="8bt0EGpzoLc2UHUZODhH-1">
          <mxGeometry y="208" width="160" height="26" as="geometry" />
        </mxCell>
        <mxCell id="8bt0EGpzoLc2UHUZODhH-3" value="" style="line;strokeWidth=1;fillColor=none;align=left;verticalAlign=middle;spacingTop=-1;spacingLeft=3;spacingRight=3;rotatable=0;labelPosition=right;points=[];portConstraint=eastwest;strokeColor=inherit;" vertex="1" parent="8bt0EGpzoLc2UHUZODhH-1">
          <mxGeometry y="234" width="160" height="8" as="geometry" />
        </mxCell>
        <mxCell id="8bt0EGpzoLc2UHUZODhH-4" value="+ int getMAVL()" style="text;strokeColor=none;fillColor=none;align=left;verticalAlign=top;spacingLeft=4;spacingRight=4;overflow=hidden;rotatable=0;points=[[0,0.5],[1,0.5]];portConstraint=eastwest;whiteSpace=wrap;html=1;" vertex="1" parent="8bt0EGpzoLc2UHUZODhH-1">
          <mxGeometry y="242" width="160" height="26" as="geometry" />
        </mxCell>
        <mxCell id="8bt0EGpzoLc2UHUZODhH-19" value="+ String getChucvu()" style="text;strokeColor=none;fillColor=none;align=left;verticalAlign=top;spacingLeft=4;spacingRight=4;overflow=hidden;rotatable=0;points=[[0,0.5],[1,0.5]];portConstraint=eastwest;whiteSpace=wrap;html=1;" vertex="1" parent="8bt0EGpzoLc2UHUZODhH-1">
          <mxGeometry y="268" width="160" height="26" as="geometry" />
        </mxCell>
        <mxCell id="8bt0EGpzoLc2UHUZODhH-15" value="+ Int getSoLuong()" style="text;strokeColor=none;fillColor=none;align=left;verticalAlign=top;spacingLeft=4;spacingRight=4;overflow=hidden;rotatable=0;points=[[0,0.5],[1,0.5]];portConstraint=eastwest;whiteSpace=wrap;html=1;" vertex="1" parent="8bt0EGpzoLc2UHUZODhH-1">
          <mxGeometry y="294" width="160" height="26" as="geometry" />
        </mxCell>
        <mxCell id="8bt0EGpzoLc2UHUZODhH-16" value="+ Date getNgaydang()" style="text;strokeColor=none;fillColor=none;align=left;verticalAlign=top;spacingLeft=4;spacingRight=4;overflow=hidden;rotatable=0;points=[[0,0.5],[1,0.5]];portConstraint=eastwest;whiteSpace=wrap;html=1;" vertex="1" parent="8bt0EGpzoLc2UHUZODhH-1">
          <mxGeometry y="320" width="160" height="26" as="geometry" />
        </mxCell>
        <mxCell id="8bt0EGpzoLc2UHUZODhH-17" value="+ Date getNgayhethan()" style="text;strokeColor=none;fillColor=none;align=left;verticalAlign=top;spacingLeft=4;spacingRight=4;overflow=hidden;rotatable=0;points=[[0,0.5],[1,0.5]];portConstraint=eastwest;whiteSpace=wrap;html=1;" vertex="1" parent="8bt0EGpzoLc2UHUZODhH-1">
          <mxGeometry y="346" width="160" height="26" as="geometry" />
        </mxCell>
        <mxCell id="8bt0EGpzoLc2UHUZODhH-20" value="+ String Mota()" style="text;strokeColor=none;fillColor=none;align=left;verticalAlign=top;spacingLeft=4;spacingRight=4;overflow=hidden;rotatable=0;points=[[0,0.5],[1,0.5]];portConstraint=eastwest;whiteSpace=wrap;html=1;" vertex="1" parent="8bt0EGpzoLc2UHUZODhH-1">
          <mxGeometry y="372" width="160" height="26" as="geometry" />
        </mxCell>
        <mxCell id="8bt0EGpzoLc2UHUZODhH-21" value="+ Double getLuong()" style="text;strokeColor=none;fillColor=none;align=left;verticalAlign=top;spacingLeft=4;spacingRight=4;overflow=hidden;rotatable=0;points=[[0,0.5],[1,0.5]];portConstraint=eastwest;whiteSpace=wrap;html=1;" vertex="1" parent="8bt0EGpzoLc2UHUZODhH-1">
          <mxGeometry y="398" width="160" height="26" as="geometry" />
        </mxCell>
        <mxCell id="8bt0EGpzoLc2UHUZODhH-22" value="+ String getQuanlynhansu()" style="text;strokeColor=none;fillColor=none;align=left;verticalAlign=top;spacingLeft=4;spacingRight=4;overflow=hidden;rotatable=0;points=[[0,0.5],[1,0.5]];portConstraint=eastwest;whiteSpace=wrap;html=1;" vertex="1" parent="8bt0EGpzoLc2UHUZODhH-1">
          <mxGeometry y="424" width="160" height="26" as="geometry" />
        </mxCell>
        <mxCell id="8bt0EGpzoLc2UHUZODhH-23" value="+ void setMAVL()" style="text;strokeColor=none;fillColor=none;align=left;verticalAlign=top;spacingLeft=4;spacingRight=4;overflow=hidden;rotatable=0;points=[[0,0.5],[1,0.5]];portConstraint=eastwest;whiteSpace=wrap;html=1;" vertex="1" parent="8bt0EGpzoLc2UHUZODhH-1">
          <mxGeometry y="450" width="160" height="26" as="geometry" />
        </mxCell>
        <mxCell id="8bt0EGpzoLc2UHUZODhH-24" value="+ void setChucvu()" style="text;strokeColor=none;fillColor=none;align=left;verticalAlign=top;spacingLeft=4;spacingRight=4;overflow=hidden;rotatable=0;points=[[0,0.5],[1,0.5]];portConstraint=eastwest;whiteSpace=wrap;html=1;" vertex="1" parent="8bt0EGpzoLc2UHUZODhH-1">
          <mxGeometry y="476" width="160" height="26" as="geometry" />
        </mxCell>
        <mxCell id="8bt0EGpzoLc2UHUZODhH-25" value="+ void setSoLuong()" style="text;strokeColor=none;fillColor=none;align=left;verticalAlign=top;spacingLeft=4;spacingRight=4;overflow=hidden;rotatable=0;points=[[0,0.5],[1,0.5]];portConstraint=eastwest;whiteSpace=wrap;html=1;" vertex="1" parent="8bt0EGpzoLc2UHUZODhH-1">
          <mxGeometry y="502" width="160" height="26" as="geometry" />
        </mxCell>
        <mxCell id="8bt0EGpzoLc2UHUZODhH-26" value="+ void setNgaydang()" style="text;strokeColor=none;fillColor=none;align=left;verticalAlign=top;spacingLeft=4;spacingRight=4;overflow=hidden;rotatable=0;points=[[0,0.5],[1,0.5]];portConstraint=eastwest;whiteSpace=wrap;html=1;" vertex="1" parent="8bt0EGpzoLc2UHUZODhH-1">
          <mxGeometry y="528" width="160" height="26" as="geometry" />
        </mxCell>
        <mxCell id="8bt0EGpzoLc2UHUZODhH-27" value="+ void setNgayhethan()" style="text;strokeColor=none;fillColor=none;align=left;verticalAlign=top;spacingLeft=4;spacingRight=4;overflow=hidden;rotatable=0;points=[[0,0.5],[1,0.5]];portConstraint=eastwest;whiteSpace=wrap;html=1;" vertex="1" parent="8bt0EGpzoLc2UHUZODhH-1">
          <mxGeometry y="554" width="160" height="26" as="geometry" />
        </mxCell>
        <mxCell id="8bt0EGpzoLc2UHUZODhH-28" value="+ void setMota()" style="text;strokeColor=none;fillColor=none;align=left;verticalAlign=top;spacingLeft=4;spacingRight=4;overflow=hidden;rotatable=0;points=[[0,0.5],[1,0.5]];portConstraint=eastwest;whiteSpace=wrap;html=1;" vertex="1" parent="8bt0EGpzoLc2UHUZODhH-1">
          <mxGeometry y="580" width="160" height="26" as="geometry" />
        </mxCell>
        <mxCell id="8bt0EGpzoLc2UHUZODhH-29" value="+ void setLuong()" style="text;strokeColor=none;fillColor=none;align=left;verticalAlign=top;spacingLeft=4;spacingRight=4;overflow=hidden;rotatable=0;points=[[0,0.5],[1,0.5]];portConstraint=eastwest;whiteSpace=wrap;html=1;" vertex="1" parent="8bt0EGpzoLc2UHUZODhH-1">
          <mxGeometry y="606" width="160" height="26" as="geometry" />
        </mxCell>
        <mxCell id="8bt0EGpzoLc2UHUZODhH-30" value="+ void setQuanlynhansu()" style="text;strokeColor=none;fillColor=none;align=left;verticalAlign=top;spacingLeft=4;spacingRight=4;overflow=hidden;rotatable=0;points=[[0,0.5],[1,0.5]];portConstraint=eastwest;whiteSpace=wrap;html=1;" vertex="1" parent="8bt0EGpzoLc2UHUZODhH-1">
          <mxGeometry y="632" width="160" height="26" as="geometry" />
        </mxCell>
        <mxCell id="8bt0EGpzoLc2UHUZODhH-7" value="&lt;font style=&quot;font-size: 36px;&quot;&gt;UML Client-Side Website Bất động sản&lt;/font&gt;" style="text;html=1;align=center;verticalAlign=middle;resizable=0;points=[];autosize=1;strokeColor=none;fillColor=none;" vertex="1" parent="1">
          <mxGeometry x="290" y="-170" width="650" height="60" as="geometry" />
        </mxCell>
        <mxCell id="8bt0EGpzoLc2UHUZODhH-31" value="LichhenModel" style="swimlane;fontStyle=1;align=center;verticalAlign=top;childLayout=stackLayout;horizontal=1;startSize=26;horizontalStack=0;resizeParent=1;resizeParentMax=0;resizeLast=0;collapsible=1;marginBottom=0;whiteSpace=wrap;html=1;" vertex="1" parent="1">
          <mxGeometry x="125" y="160" width="160" height="684" as="geometry" />
        </mxCell>
        <mxCell id="8bt0EGpzoLc2UHUZODhH-32" value="+ ID ma lich hen" style="text;strokeColor=none;fillColor=none;align=left;verticalAlign=top;spacingLeft=4;spacingRight=4;overflow=hidden;rotatable=0;points=[[0,0.5],[1,0.5]];portConstraint=eastwest;whiteSpace=wrap;html=1;" vertex="1" parent="8bt0EGpzoLc2UHUZODhH-31">
          <mxGeometry y="26" width="160" height="26" as="geometry" />
        </mxCell>
        <mxCell id="8bt0EGpzoLc2UHUZODhH-35" value="+ TenKH" style="text;strokeColor=none;fillColor=none;align=left;verticalAlign=top;spacingLeft=4;spacingRight=4;overflow=hidden;rotatable=0;points=[[0,0.5],[1,0.5]];portConstraint=eastwest;whiteSpace=wrap;html=1;" vertex="1" parent="8bt0EGpzoLc2UHUZODhH-31">
          <mxGeometry y="52" width="160" height="26" as="geometry" />
        </mxCell>
        <mxCell id="8bt0EGpzoLc2UHUZODhH-36" value="+ Ngayhen" style="text;strokeColor=none;fillColor=none;align=left;verticalAlign=top;spacingLeft=4;spacingRight=4;overflow=hidden;rotatable=0;points=[[0,0.5],[1,0.5]];portConstraint=eastwest;whiteSpace=wrap;html=1;" vertex="1" parent="8bt0EGpzoLc2UHUZODhH-31">
          <mxGeometry y="78" width="160" height="26" as="geometry" />
        </mxCell>
        <mxCell id="8bt0EGpzoLc2UHUZODhH-37" value="+&amp;nbsp; Sodienthoai" style="text;strokeColor=none;fillColor=none;align=left;verticalAlign=top;spacingLeft=4;spacingRight=4;overflow=hidden;rotatable=0;points=[[0,0.5],[1,0.5]];portConstraint=eastwest;whiteSpace=wrap;html=1;" vertex="1" parent="8bt0EGpzoLc2UHUZODhH-31">
          <mxGeometry y="104" width="160" height="26" as="geometry" />
        </mxCell>
        <mxCell id="8bt0EGpzoLc2UHUZODhH-38" value="+ Email" style="text;strokeColor=none;fillColor=none;align=left;verticalAlign=top;spacingLeft=4;spacingRight=4;overflow=hidden;rotatable=0;points=[[0,0.5],[1,0.5]];portConstraint=eastwest;whiteSpace=wrap;html=1;" vertex="1" parent="8bt0EGpzoLc2UHUZODhH-31">
          <mxGeometry y="130" width="160" height="26" as="geometry" />
        </mxCell>
        <mxCell id="8bt0EGpzoLc2UHUZODhH-39" value="+ Diachi" style="text;strokeColor=none;fillColor=none;align=left;verticalAlign=top;spacingLeft=4;spacingRight=4;overflow=hidden;rotatable=0;points=[[0,0.5],[1,0.5]];portConstraint=eastwest;whiteSpace=wrap;html=1;" vertex="1" parent="8bt0EGpzoLc2UHUZODhH-31">
          <mxGeometry y="156" width="160" height="26" as="geometry" />
        </mxCell>
        <mxCell id="8bt0EGpzoLc2UHUZODhH-269" value="+ Dichvu" style="text;strokeColor=none;fillColor=none;align=left;verticalAlign=top;spacingLeft=4;spacingRight=4;overflow=hidden;rotatable=0;points=[[0,0.5],[1,0.5]];portConstraint=eastwest;whiteSpace=wrap;html=1;" vertex="1" parent="8bt0EGpzoLc2UHUZODhH-31">
          <mxGeometry y="182" width="160" height="26" as="geometry" />
        </mxCell>
        <mxCell id="8bt0EGpzoLc2UHUZODhH-40" value="+ Ghichu" style="text;strokeColor=none;fillColor=none;align=left;verticalAlign=top;spacingLeft=4;spacingRight=4;overflow=hidden;rotatable=0;points=[[0,0.5],[1,0.5]];portConstraint=eastwest;whiteSpace=wrap;html=1;" vertex="1" parent="8bt0EGpzoLc2UHUZODhH-31">
          <mxGeometry y="208" width="160" height="26" as="geometry" />
        </mxCell>
        <mxCell id="8bt0EGpzoLc2UHUZODhH-41" value="+ Nhanvientiepnhan" style="text;strokeColor=none;fillColor=none;align=left;verticalAlign=top;spacingLeft=4;spacingRight=4;overflow=hidden;rotatable=0;points=[[0,0.5],[1,0.5]];portConstraint=eastwest;whiteSpace=wrap;html=1;" vertex="1" parent="8bt0EGpzoLc2UHUZODhH-31">
          <mxGeometry y="234" width="160" height="26" as="geometry" />
        </mxCell>
        <mxCell id="8bt0EGpzoLc2UHUZODhH-33" value="" style="line;strokeWidth=1;fillColor=none;align=left;verticalAlign=middle;spacingTop=-1;spacingLeft=3;spacingRight=3;rotatable=0;labelPosition=right;points=[];portConstraint=eastwest;strokeColor=inherit;" vertex="1" parent="8bt0EGpzoLc2UHUZODhH-31">
          <mxGeometry y="260" width="160" height="8" as="geometry" />
        </mxCell>
        <mxCell id="8bt0EGpzoLc2UHUZODhH-34" value="+ int getID" style="text;strokeColor=none;fillColor=none;align=left;verticalAlign=top;spacingLeft=4;spacingRight=4;overflow=hidden;rotatable=0;points=[[0,0.5],[1,0.5]];portConstraint=eastwest;whiteSpace=wrap;html=1;" vertex="1" parent="8bt0EGpzoLc2UHUZODhH-31">
          <mxGeometry y="268" width="160" height="26" as="geometry" />
        </mxCell>
        <mxCell id="8bt0EGpzoLc2UHUZODhH-42" value="+ void setID" style="text;strokeColor=none;fillColor=none;align=left;verticalAlign=top;spacingLeft=4;spacingRight=4;overflow=hidden;rotatable=0;points=[[0,0.5],[1,0.5]];portConstraint=eastwest;whiteSpace=wrap;html=1;" vertex="1" parent="8bt0EGpzoLc2UHUZODhH-31">
          <mxGeometry y="294" width="160" height="26" as="geometry" />
        </mxCell>
        <mxCell id="8bt0EGpzoLc2UHUZODhH-43" value="+ Date getNgayhen()" style="text;strokeColor=none;fillColor=none;align=left;verticalAlign=top;spacingLeft=4;spacingRight=4;overflow=hidden;rotatable=0;points=[[0,0.5],[1,0.5]];portConstraint=eastwest;whiteSpace=wrap;html=1;" vertex="1" parent="8bt0EGpzoLc2UHUZODhH-31">
          <mxGeometry y="320" width="160" height="26" as="geometry" />
        </mxCell>
        <mxCell id="8bt0EGpzoLc2UHUZODhH-44" value="+ void setNgayhen()" style="text;strokeColor=none;fillColor=none;align=left;verticalAlign=top;spacingLeft=4;spacingRight=4;overflow=hidden;rotatable=0;points=[[0,0.5],[1,0.5]];portConstraint=eastwest;whiteSpace=wrap;html=1;" vertex="1" parent="8bt0EGpzoLc2UHUZODhH-31">
          <mxGeometry y="346" width="160" height="26" as="geometry" />
        </mxCell>
        <mxCell id="8bt0EGpzoLc2UHUZODhH-45" value="+ String getSDT()" style="text;strokeColor=none;fillColor=none;align=left;verticalAlign=top;spacingLeft=4;spacingRight=4;overflow=hidden;rotatable=0;points=[[0,0.5],[1,0.5]];portConstraint=eastwest;whiteSpace=wrap;html=1;" vertex="1" parent="8bt0EGpzoLc2UHUZODhH-31">
          <mxGeometry y="372" width="160" height="26" as="geometry" />
        </mxCell>
        <mxCell id="8bt0EGpzoLc2UHUZODhH-46" value="+ void setSDT()" style="text;strokeColor=none;fillColor=none;align=left;verticalAlign=top;spacingLeft=4;spacingRight=4;overflow=hidden;rotatable=0;points=[[0,0.5],[1,0.5]];portConstraint=eastwest;whiteSpace=wrap;html=1;" vertex="1" parent="8bt0EGpzoLc2UHUZODhH-31">
          <mxGeometry y="398" width="160" height="26" as="geometry" />
        </mxCell>
        <mxCell id="8bt0EGpzoLc2UHUZODhH-47" value="+ String getEmail()" style="text;strokeColor=none;fillColor=none;align=left;verticalAlign=top;spacingLeft=4;spacingRight=4;overflow=hidden;rotatable=0;points=[[0,0.5],[1,0.5]];portConstraint=eastwest;whiteSpace=wrap;html=1;" vertex="1" parent="8bt0EGpzoLc2UHUZODhH-31">
          <mxGeometry y="424" width="160" height="26" as="geometry" />
        </mxCell>
        <mxCell id="8bt0EGpzoLc2UHUZODhH-48" value="+ void setEmail()" style="text;strokeColor=none;fillColor=none;align=left;verticalAlign=top;spacingLeft=4;spacingRight=4;overflow=hidden;rotatable=0;points=[[0,0.5],[1,0.5]];portConstraint=eastwest;whiteSpace=wrap;html=1;" vertex="1" parent="8bt0EGpzoLc2UHUZODhH-31">
          <mxGeometry y="450" width="160" height="26" as="geometry" />
        </mxCell>
        <mxCell id="8bt0EGpzoLc2UHUZODhH-49" value="+ String getDiachi()" style="text;strokeColor=none;fillColor=none;align=left;verticalAlign=top;spacingLeft=4;spacingRight=4;overflow=hidden;rotatable=0;points=[[0,0.5],[1,0.5]];portConstraint=eastwest;whiteSpace=wrap;html=1;" vertex="1" parent="8bt0EGpzoLc2UHUZODhH-31">
          <mxGeometry y="476" width="160" height="26" as="geometry" />
        </mxCell>
        <mxCell id="8bt0EGpzoLc2UHUZODhH-50" value="+ void setDiachi()" style="text;strokeColor=none;fillColor=none;align=left;verticalAlign=top;spacingLeft=4;spacingRight=4;overflow=hidden;rotatable=0;points=[[0,0.5],[1,0.5]];portConstraint=eastwest;whiteSpace=wrap;html=1;" vertex="1" parent="8bt0EGpzoLc2UHUZODhH-31">
          <mxGeometry y="502" width="160" height="26" as="geometry" />
        </mxCell>
        <mxCell id="8bt0EGpzoLc2UHUZODhH-51" value="+ String getGhichu()" style="text;strokeColor=none;fillColor=none;align=left;verticalAlign=top;spacingLeft=4;spacingRight=4;overflow=hidden;rotatable=0;points=[[0,0.5],[1,0.5]];portConstraint=eastwest;whiteSpace=wrap;html=1;" vertex="1" parent="8bt0EGpzoLc2UHUZODhH-31">
          <mxGeometry y="528" width="160" height="26" as="geometry" />
        </mxCell>
        <mxCell id="8bt0EGpzoLc2UHUZODhH-52" value="+ void setGhichu()" style="text;strokeColor=none;fillColor=none;align=left;verticalAlign=top;spacingLeft=4;spacingRight=4;overflow=hidden;rotatable=0;points=[[0,0.5],[1,0.5]];portConstraint=eastwest;whiteSpace=wrap;html=1;" vertex="1" parent="8bt0EGpzoLc2UHUZODhH-31">
          <mxGeometry y="554" width="160" height="26" as="geometry" />
        </mxCell>
        <mxCell id="8bt0EGpzoLc2UHUZODhH-53" value="+ String getNV()" style="text;strokeColor=none;fillColor=none;align=left;verticalAlign=top;spacingLeft=4;spacingRight=4;overflow=hidden;rotatable=0;points=[[0,0.5],[1,0.5]];portConstraint=eastwest;whiteSpace=wrap;html=1;" vertex="1" parent="8bt0EGpzoLc2UHUZODhH-31">
          <mxGeometry y="580" width="160" height="26" as="geometry" />
        </mxCell>
        <mxCell id="8bt0EGpzoLc2UHUZODhH-54" value="+ void setNV()" style="text;strokeColor=none;fillColor=none;align=left;verticalAlign=top;spacingLeft=4;spacingRight=4;overflow=hidden;rotatable=0;points=[[0,0.5],[1,0.5]];portConstraint=eastwest;whiteSpace=wrap;html=1;" vertex="1" parent="8bt0EGpzoLc2UHUZODhH-31">
          <mxGeometry y="606" width="160" height="26" as="geometry" />
        </mxCell>
        <mxCell id="8bt0EGpzoLc2UHUZODhH-270" value="+ String getDichvu()" style="text;strokeColor=none;fillColor=none;align=left;verticalAlign=top;spacingLeft=4;spacingRight=4;overflow=hidden;rotatable=0;points=[[0,0.5],[1,0.5]];portConstraint=eastwest;whiteSpace=wrap;html=1;" vertex="1" parent="8bt0EGpzoLc2UHUZODhH-31">
          <mxGeometry y="632" width="160" height="26" as="geometry" />
        </mxCell>
        <mxCell id="8bt0EGpzoLc2UHUZODhH-271" value="+ void setDichvu()" style="text;strokeColor=none;fillColor=none;align=left;verticalAlign=top;spacingLeft=4;spacingRight=4;overflow=hidden;rotatable=0;points=[[0,0.5],[1,0.5]];portConstraint=eastwest;whiteSpace=wrap;html=1;" vertex="1" parent="8bt0EGpzoLc2UHUZODhH-31">
          <mxGeometry y="658" width="160" height="26" as="geometry" />
        </mxCell>
        <mxCell id="8bt0EGpzoLc2UHUZODhH-55" value="UngcuvienModel" style="swimlane;fontStyle=1;align=center;verticalAlign=top;childLayout=stackLayout;horizontal=1;startSize=26;horizontalStack=0;resizeParent=1;resizeParentMax=0;resizeLast=0;collapsible=1;marginBottom=0;whiteSpace=wrap;html=1;" vertex="1" parent="1">
          <mxGeometry x="410" y="330" width="160" height="658" as="geometry" />
        </mxCell>
        <mxCell id="8bt0EGpzoLc2UHUZODhH-56" value="+ MAUCV" style="text;strokeColor=none;fillColor=none;align=left;verticalAlign=top;spacingLeft=4;spacingRight=4;overflow=hidden;rotatable=0;points=[[0,0.5],[1,0.5]];portConstraint=eastwest;whiteSpace=wrap;html=1;" vertex="1" parent="8bt0EGpzoLc2UHUZODhH-55">
          <mxGeometry y="26" width="160" height="26" as="geometry" />
        </mxCell>
        <mxCell id="8bt0EGpzoLc2UHUZODhH-59" value="+ Tenungcuvien" style="text;strokeColor=none;fillColor=none;align=left;verticalAlign=top;spacingLeft=4;spacingRight=4;overflow=hidden;rotatable=0;points=[[0,0.5],[1,0.5]];portConstraint=eastwest;whiteSpace=wrap;html=1;" vertex="1" parent="8bt0EGpzoLc2UHUZODhH-55">
          <mxGeometry y="52" width="160" height="26" as="geometry" />
        </mxCell>
        <mxCell id="8bt0EGpzoLc2UHUZODhH-60" value="+ Diachi" style="text;strokeColor=none;fillColor=none;align=left;verticalAlign=top;spacingLeft=4;spacingRight=4;overflow=hidden;rotatable=0;points=[[0,0.5],[1,0.5]];portConstraint=eastwest;whiteSpace=wrap;html=1;" vertex="1" parent="8bt0EGpzoLc2UHUZODhH-55">
          <mxGeometry y="78" width="160" height="26" as="geometry" />
        </mxCell>
        <mxCell id="8bt0EGpzoLc2UHUZODhH-61" value="+ SDT" style="text;strokeColor=none;fillColor=none;align=left;verticalAlign=top;spacingLeft=4;spacingRight=4;overflow=hidden;rotatable=0;points=[[0,0.5],[1,0.5]];portConstraint=eastwest;whiteSpace=wrap;html=1;" vertex="1" parent="8bt0EGpzoLc2UHUZODhH-55">
          <mxGeometry y="104" width="160" height="26" as="geometry" />
        </mxCell>
        <mxCell id="8bt0EGpzoLc2UHUZODhH-62" value="+ Email" style="text;strokeColor=none;fillColor=none;align=left;verticalAlign=top;spacingLeft=4;spacingRight=4;overflow=hidden;rotatable=0;points=[[0,0.5],[1,0.5]];portConstraint=eastwest;whiteSpace=wrap;html=1;" vertex="1" parent="8bt0EGpzoLc2UHUZODhH-55">
          <mxGeometry y="130" width="160" height="26" as="geometry" />
        </mxCell>
        <mxCell id="8bt0EGpzoLc2UHUZODhH-63" value="+ Chucvu" style="text;strokeColor=none;fillColor=none;align=left;verticalAlign=top;spacingLeft=4;spacingRight=4;overflow=hidden;rotatable=0;points=[[0,0.5],[1,0.5]];portConstraint=eastwest;whiteSpace=wrap;html=1;" vertex="1" parent="8bt0EGpzoLc2UHUZODhH-55">
          <mxGeometry y="156" width="160" height="26" as="geometry" />
        </mxCell>
        <mxCell id="8bt0EGpzoLc2UHUZODhH-64" value="+ Namkinhnghiem" style="text;strokeColor=none;fillColor=none;align=left;verticalAlign=top;spacingLeft=4;spacingRight=4;overflow=hidden;rotatable=0;points=[[0,0.5],[1,0.5]];portConstraint=eastwest;whiteSpace=wrap;html=1;" vertex="1" parent="8bt0EGpzoLc2UHUZODhH-55">
          <mxGeometry y="182" width="160" height="26" as="geometry" />
        </mxCell>
        <mxCell id="8bt0EGpzoLc2UHUZODhH-65" value="+ QL nhansu" style="text;strokeColor=none;fillColor=none;align=left;verticalAlign=top;spacingLeft=4;spacingRight=4;overflow=hidden;rotatable=0;points=[[0,0.5],[1,0.5]];portConstraint=eastwest;whiteSpace=wrap;html=1;" vertex="1" parent="8bt0EGpzoLc2UHUZODhH-55">
          <mxGeometry y="208" width="160" height="26" as="geometry" />
        </mxCell>
        <mxCell id="8bt0EGpzoLc2UHUZODhH-57" value="" style="line;strokeWidth=1;fillColor=none;align=left;verticalAlign=middle;spacingTop=-1;spacingLeft=3;spacingRight=3;rotatable=0;labelPosition=right;points=[];portConstraint=eastwest;strokeColor=inherit;" vertex="1" parent="8bt0EGpzoLc2UHUZODhH-55">
          <mxGeometry y="234" width="160" height="8" as="geometry" />
        </mxCell>
        <mxCell id="8bt0EGpzoLc2UHUZODhH-58" value="+ int getID()" style="text;strokeColor=none;fillColor=none;align=left;verticalAlign=top;spacingLeft=4;spacingRight=4;overflow=hidden;rotatable=0;points=[[0,0.5],[1,0.5]];portConstraint=eastwest;whiteSpace=wrap;html=1;" vertex="1" parent="8bt0EGpzoLc2UHUZODhH-55">
          <mxGeometry y="242" width="160" height="26" as="geometry" />
        </mxCell>
        <mxCell id="8bt0EGpzoLc2UHUZODhH-66" value="+ void setID()" style="text;strokeColor=none;fillColor=none;align=left;verticalAlign=top;spacingLeft=4;spacingRight=4;overflow=hidden;rotatable=0;points=[[0,0.5],[1,0.5]];portConstraint=eastwest;whiteSpace=wrap;html=1;" vertex="1" parent="8bt0EGpzoLc2UHUZODhH-55">
          <mxGeometry y="268" width="160" height="26" as="geometry" />
        </mxCell>
        <mxCell id="8bt0EGpzoLc2UHUZODhH-67" value="+ String getTen()" style="text;strokeColor=none;fillColor=none;align=left;verticalAlign=top;spacingLeft=4;spacingRight=4;overflow=hidden;rotatable=0;points=[[0,0.5],[1,0.5]];portConstraint=eastwest;whiteSpace=wrap;html=1;" vertex="1" parent="8bt0EGpzoLc2UHUZODhH-55">
          <mxGeometry y="294" width="160" height="26" as="geometry" />
        </mxCell>
        <mxCell id="8bt0EGpzoLc2UHUZODhH-68" value="+ void setTen()" style="text;strokeColor=none;fillColor=none;align=left;verticalAlign=top;spacingLeft=4;spacingRight=4;overflow=hidden;rotatable=0;points=[[0,0.5],[1,0.5]];portConstraint=eastwest;whiteSpace=wrap;html=1;" vertex="1" parent="8bt0EGpzoLc2UHUZODhH-55">
          <mxGeometry y="320" width="160" height="26" as="geometry" />
        </mxCell>
        <mxCell id="8bt0EGpzoLc2UHUZODhH-69" value="+ String getDiachi()" style="text;strokeColor=none;fillColor=none;align=left;verticalAlign=top;spacingLeft=4;spacingRight=4;overflow=hidden;rotatable=0;points=[[0,0.5],[1,0.5]];portConstraint=eastwest;whiteSpace=wrap;html=1;" vertex="1" parent="8bt0EGpzoLc2UHUZODhH-55">
          <mxGeometry y="346" width="160" height="26" as="geometry" />
        </mxCell>
        <mxCell id="8bt0EGpzoLc2UHUZODhH-70" value="+ void setDiachi()" style="text;strokeColor=none;fillColor=none;align=left;verticalAlign=top;spacingLeft=4;spacingRight=4;overflow=hidden;rotatable=0;points=[[0,0.5],[1,0.5]];portConstraint=eastwest;whiteSpace=wrap;html=1;" vertex="1" parent="8bt0EGpzoLc2UHUZODhH-55">
          <mxGeometry y="372" width="160" height="26" as="geometry" />
        </mxCell>
        <mxCell id="8bt0EGpzoLc2UHUZODhH-71" value="+ String getSDT()" style="text;strokeColor=none;fillColor=none;align=left;verticalAlign=top;spacingLeft=4;spacingRight=4;overflow=hidden;rotatable=0;points=[[0,0.5],[1,0.5]];portConstraint=eastwest;whiteSpace=wrap;html=1;" vertex="1" parent="8bt0EGpzoLc2UHUZODhH-55">
          <mxGeometry y="398" width="160" height="26" as="geometry" />
        </mxCell>
        <mxCell id="8bt0EGpzoLc2UHUZODhH-72" value="+ void setSDT()" style="text;strokeColor=none;fillColor=none;align=left;verticalAlign=top;spacingLeft=4;spacingRight=4;overflow=hidden;rotatable=0;points=[[0,0.5],[1,0.5]];portConstraint=eastwest;whiteSpace=wrap;html=1;" vertex="1" parent="8bt0EGpzoLc2UHUZODhH-55">
          <mxGeometry y="424" width="160" height="26" as="geometry" />
        </mxCell>
        <mxCell id="8bt0EGpzoLc2UHUZODhH-73" value="+ String getEmail()" style="text;strokeColor=none;fillColor=none;align=left;verticalAlign=top;spacingLeft=4;spacingRight=4;overflow=hidden;rotatable=0;points=[[0,0.5],[1,0.5]];portConstraint=eastwest;whiteSpace=wrap;html=1;" vertex="1" parent="8bt0EGpzoLc2UHUZODhH-55">
          <mxGeometry y="450" width="160" height="26" as="geometry" />
        </mxCell>
        <mxCell id="8bt0EGpzoLc2UHUZODhH-74" value="+ void setEmail()" style="text;strokeColor=none;fillColor=none;align=left;verticalAlign=top;spacingLeft=4;spacingRight=4;overflow=hidden;rotatable=0;points=[[0,0.5],[1,0.5]];portConstraint=eastwest;whiteSpace=wrap;html=1;" vertex="1" parent="8bt0EGpzoLc2UHUZODhH-55">
          <mxGeometry y="476" width="160" height="26" as="geometry" />
        </mxCell>
        <mxCell id="8bt0EGpzoLc2UHUZODhH-75" value="+ String getChuvu()" style="text;strokeColor=none;fillColor=none;align=left;verticalAlign=top;spacingLeft=4;spacingRight=4;overflow=hidden;rotatable=0;points=[[0,0.5],[1,0.5]];portConstraint=eastwest;whiteSpace=wrap;html=1;" vertex="1" parent="8bt0EGpzoLc2UHUZODhH-55">
          <mxGeometry y="502" width="160" height="26" as="geometry" />
        </mxCell>
        <mxCell id="8bt0EGpzoLc2UHUZODhH-76" value="+ void setChucvu()" style="text;strokeColor=none;fillColor=none;align=left;verticalAlign=top;spacingLeft=4;spacingRight=4;overflow=hidden;rotatable=0;points=[[0,0.5],[1,0.5]];portConstraint=eastwest;whiteSpace=wrap;html=1;" vertex="1" parent="8bt0EGpzoLc2UHUZODhH-55">
          <mxGeometry y="528" width="160" height="26" as="geometry" />
        </mxCell>
        <mxCell id="8bt0EGpzoLc2UHUZODhH-77" value="+ int getNamKN()" style="text;strokeColor=none;fillColor=none;align=left;verticalAlign=top;spacingLeft=4;spacingRight=4;overflow=hidden;rotatable=0;points=[[0,0.5],[1,0.5]];portConstraint=eastwest;whiteSpace=wrap;html=1;" vertex="1" parent="8bt0EGpzoLc2UHUZODhH-55">
          <mxGeometry y="554" width="160" height="26" as="geometry" />
        </mxCell>
        <mxCell id="8bt0EGpzoLc2UHUZODhH-78" value="+ void setNamKN()" style="text;strokeColor=none;fillColor=none;align=left;verticalAlign=top;spacingLeft=4;spacingRight=4;overflow=hidden;rotatable=0;points=[[0,0.5],[1,0.5]];portConstraint=eastwest;whiteSpace=wrap;html=1;" vertex="1" parent="8bt0EGpzoLc2UHUZODhH-55">
          <mxGeometry y="580" width="160" height="26" as="geometry" />
        </mxCell>
        <mxCell id="8bt0EGpzoLc2UHUZODhH-79" value="+ String getQLNS()" style="text;strokeColor=none;fillColor=none;align=left;verticalAlign=top;spacingLeft=4;spacingRight=4;overflow=hidden;rotatable=0;points=[[0,0.5],[1,0.5]];portConstraint=eastwest;whiteSpace=wrap;html=1;" vertex="1" parent="8bt0EGpzoLc2UHUZODhH-55">
          <mxGeometry y="606" width="160" height="26" as="geometry" />
        </mxCell>
        <mxCell id="8bt0EGpzoLc2UHUZODhH-80" value="+ void setQLNS()" style="text;strokeColor=none;fillColor=none;align=left;verticalAlign=top;spacingLeft=4;spacingRight=4;overflow=hidden;rotatable=0;points=[[0,0.5],[1,0.5]];portConstraint=eastwest;whiteSpace=wrap;html=1;" vertex="1" parent="8bt0EGpzoLc2UHUZODhH-55">
          <mxGeometry y="632" width="160" height="26" as="geometry" />
        </mxCell>
        <mxCell id="8bt0EGpzoLc2UHUZODhH-91" value="UserModel" style="swimlane;fontStyle=1;align=center;verticalAlign=top;childLayout=stackLayout;horizontal=1;startSize=26;horizontalStack=0;resizeParent=1;resizeParentMax=0;resizeLast=0;collapsible=1;marginBottom=0;whiteSpace=wrap;html=1;" vertex="1" parent="1">
          <mxGeometry x="120" y="1040" width="160" height="736" as="geometry" />
        </mxCell>
        <mxCell id="8bt0EGpzoLc2UHUZODhH-92" value="+ UID" style="text;strokeColor=none;fillColor=none;align=left;verticalAlign=top;spacingLeft=4;spacingRight=4;overflow=hidden;rotatable=0;points=[[0,0.5],[1,0.5]];portConstraint=eastwest;whiteSpace=wrap;html=1;" vertex="1" parent="8bt0EGpzoLc2UHUZODhH-91">
          <mxGeometry y="26" width="160" height="26" as="geometry" />
        </mxCell>
        <mxCell id="8bt0EGpzoLc2UHUZODhH-93" value="+ Ten" style="text;strokeColor=none;fillColor=none;align=left;verticalAlign=top;spacingLeft=4;spacingRight=4;overflow=hidden;rotatable=0;points=[[0,0.5],[1,0.5]];portConstraint=eastwest;whiteSpace=wrap;html=1;" vertex="1" parent="8bt0EGpzoLc2UHUZODhH-91">
          <mxGeometry y="52" width="160" height="26" as="geometry" />
        </mxCell>
        <mxCell id="8bt0EGpzoLc2UHUZODhH-94" value="+ Diachi" style="text;strokeColor=none;fillColor=none;align=left;verticalAlign=top;spacingLeft=4;spacingRight=4;overflow=hidden;rotatable=0;points=[[0,0.5],[1,0.5]];portConstraint=eastwest;whiteSpace=wrap;html=1;" vertex="1" parent="8bt0EGpzoLc2UHUZODhH-91">
          <mxGeometry y="78" width="160" height="26" as="geometry" />
        </mxCell>
        <mxCell id="8bt0EGpzoLc2UHUZODhH-95" value="+ SDT" style="text;strokeColor=none;fillColor=none;align=left;verticalAlign=top;spacingLeft=4;spacingRight=4;overflow=hidden;rotatable=0;points=[[0,0.5],[1,0.5]];portConstraint=eastwest;whiteSpace=wrap;html=1;" vertex="1" parent="8bt0EGpzoLc2UHUZODhH-91">
          <mxGeometry y="104" width="160" height="26" as="geometry" />
        </mxCell>
        <mxCell id="8bt0EGpzoLc2UHUZODhH-96" value="+ Email" style="text;strokeColor=none;fillColor=none;align=left;verticalAlign=top;spacingLeft=4;spacingRight=4;overflow=hidden;rotatable=0;points=[[0,0.5],[1,0.5]];portConstraint=eastwest;whiteSpace=wrap;html=1;" vertex="1" parent="8bt0EGpzoLc2UHUZODhH-91">
          <mxGeometry y="130" width="160" height="26" as="geometry" />
        </mxCell>
        <mxCell id="8bt0EGpzoLc2UHUZODhH-97" value="+ Ngaysinh" style="text;strokeColor=none;fillColor=none;align=left;verticalAlign=top;spacingLeft=4;spacingRight=4;overflow=hidden;rotatable=0;points=[[0,0.5],[1,0.5]];portConstraint=eastwest;whiteSpace=wrap;html=1;" vertex="1" parent="8bt0EGpzoLc2UHUZODhH-91">
          <mxGeometry y="156" width="160" height="26" as="geometry" />
        </mxCell>
        <mxCell id="8bt0EGpzoLc2UHUZODhH-98" value="+ Tennguoidung" style="text;strokeColor=none;fillColor=none;align=left;verticalAlign=top;spacingLeft=4;spacingRight=4;overflow=hidden;rotatable=0;points=[[0,0.5],[1,0.5]];portConstraint=eastwest;whiteSpace=wrap;html=1;" vertex="1" parent="8bt0EGpzoLc2UHUZODhH-91">
          <mxGeometry y="182" width="160" height="26" as="geometry" />
        </mxCell>
        <mxCell id="8bt0EGpzoLc2UHUZODhH-99" value="+ Matkhau" style="text;strokeColor=none;fillColor=none;align=left;verticalAlign=top;spacingLeft=4;spacingRight=4;overflow=hidden;rotatable=0;points=[[0,0.5],[1,0.5]];portConstraint=eastwest;whiteSpace=wrap;html=1;" vertex="1" parent="8bt0EGpzoLc2UHUZODhH-91">
          <mxGeometry y="208" width="160" height="26" as="geometry" />
        </mxCell>
        <mxCell id="8bt0EGpzoLc2UHUZODhH-117" value="+ Quyen" style="text;strokeColor=none;fillColor=none;align=left;verticalAlign=top;spacingLeft=4;spacingRight=4;overflow=hidden;rotatable=0;points=[[0,0.5],[1,0.5]];portConstraint=eastwest;whiteSpace=wrap;html=1;" vertex="1" parent="8bt0EGpzoLc2UHUZODhH-91">
          <mxGeometry y="234" width="160" height="26" as="geometry" />
        </mxCell>
        <mxCell id="8bt0EGpzoLc2UHUZODhH-100" value="" style="line;strokeWidth=1;fillColor=none;align=left;verticalAlign=middle;spacingTop=-1;spacingLeft=3;spacingRight=3;rotatable=0;labelPosition=right;points=[];portConstraint=eastwest;strokeColor=inherit;" vertex="1" parent="8bt0EGpzoLc2UHUZODhH-91">
          <mxGeometry y="260" width="160" height="8" as="geometry" />
        </mxCell>
        <mxCell id="8bt0EGpzoLc2UHUZODhH-101" value="+ int getUID()" style="text;strokeColor=none;fillColor=none;align=left;verticalAlign=top;spacingLeft=4;spacingRight=4;overflow=hidden;rotatable=0;points=[[0,0.5],[1,0.5]];portConstraint=eastwest;whiteSpace=wrap;html=1;" vertex="1" parent="8bt0EGpzoLc2UHUZODhH-91">
          <mxGeometry y="268" width="160" height="26" as="geometry" />
        </mxCell>
        <mxCell id="8bt0EGpzoLc2UHUZODhH-102" value="+ void setUID()" style="text;strokeColor=none;fillColor=none;align=left;verticalAlign=top;spacingLeft=4;spacingRight=4;overflow=hidden;rotatable=0;points=[[0,0.5],[1,0.5]];portConstraint=eastwest;whiteSpace=wrap;html=1;" vertex="1" parent="8bt0EGpzoLc2UHUZODhH-91">
          <mxGeometry y="294" width="160" height="26" as="geometry" />
        </mxCell>
        <mxCell id="8bt0EGpzoLc2UHUZODhH-103" value="+ String getTen()" style="text;strokeColor=none;fillColor=none;align=left;verticalAlign=top;spacingLeft=4;spacingRight=4;overflow=hidden;rotatable=0;points=[[0,0.5],[1,0.5]];portConstraint=eastwest;whiteSpace=wrap;html=1;" vertex="1" parent="8bt0EGpzoLc2UHUZODhH-91">
          <mxGeometry y="320" width="160" height="26" as="geometry" />
        </mxCell>
        <mxCell id="8bt0EGpzoLc2UHUZODhH-104" value="+ void setTen()" style="text;strokeColor=none;fillColor=none;align=left;verticalAlign=top;spacingLeft=4;spacingRight=4;overflow=hidden;rotatable=0;points=[[0,0.5],[1,0.5]];portConstraint=eastwest;whiteSpace=wrap;html=1;" vertex="1" parent="8bt0EGpzoLc2UHUZODhH-91">
          <mxGeometry y="346" width="160" height="26" as="geometry" />
        </mxCell>
        <mxCell id="8bt0EGpzoLc2UHUZODhH-105" value="+ String getDiachi()" style="text;strokeColor=none;fillColor=none;align=left;verticalAlign=top;spacingLeft=4;spacingRight=4;overflow=hidden;rotatable=0;points=[[0,0.5],[1,0.5]];portConstraint=eastwest;whiteSpace=wrap;html=1;" vertex="1" parent="8bt0EGpzoLc2UHUZODhH-91">
          <mxGeometry y="372" width="160" height="26" as="geometry" />
        </mxCell>
        <mxCell id="8bt0EGpzoLc2UHUZODhH-106" value="+ void setDiachi()" style="text;strokeColor=none;fillColor=none;align=left;verticalAlign=top;spacingLeft=4;spacingRight=4;overflow=hidden;rotatable=0;points=[[0,0.5],[1,0.5]];portConstraint=eastwest;whiteSpace=wrap;html=1;" vertex="1" parent="8bt0EGpzoLc2UHUZODhH-91">
          <mxGeometry y="398" width="160" height="26" as="geometry" />
        </mxCell>
        <mxCell id="8bt0EGpzoLc2UHUZODhH-107" value="+ String getSDT()" style="text;strokeColor=none;fillColor=none;align=left;verticalAlign=top;spacingLeft=4;spacingRight=4;overflow=hidden;rotatable=0;points=[[0,0.5],[1,0.5]];portConstraint=eastwest;whiteSpace=wrap;html=1;" vertex="1" parent="8bt0EGpzoLc2UHUZODhH-91">
          <mxGeometry y="424" width="160" height="26" as="geometry" />
        </mxCell>
        <mxCell id="8bt0EGpzoLc2UHUZODhH-108" value="+ void setSDT()" style="text;strokeColor=none;fillColor=none;align=left;verticalAlign=top;spacingLeft=4;spacingRight=4;overflow=hidden;rotatable=0;points=[[0,0.5],[1,0.5]];portConstraint=eastwest;whiteSpace=wrap;html=1;" vertex="1" parent="8bt0EGpzoLc2UHUZODhH-91">
          <mxGeometry y="450" width="160" height="26" as="geometry" />
        </mxCell>
        <mxCell id="8bt0EGpzoLc2UHUZODhH-109" value="+ String getEmail()" style="text;strokeColor=none;fillColor=none;align=left;verticalAlign=top;spacingLeft=4;spacingRight=4;overflow=hidden;rotatable=0;points=[[0,0.5],[1,0.5]];portConstraint=eastwest;whiteSpace=wrap;html=1;" vertex="1" parent="8bt0EGpzoLc2UHUZODhH-91">
          <mxGeometry y="476" width="160" height="26" as="geometry" />
        </mxCell>
        <mxCell id="8bt0EGpzoLc2UHUZODhH-110" value="+ void setEmail()" style="text;strokeColor=none;fillColor=none;align=left;verticalAlign=top;spacingLeft=4;spacingRight=4;overflow=hidden;rotatable=0;points=[[0,0.5],[1,0.5]];portConstraint=eastwest;whiteSpace=wrap;html=1;" vertex="1" parent="8bt0EGpzoLc2UHUZODhH-91">
          <mxGeometry y="502" width="160" height="26" as="geometry" />
        </mxCell>
        <mxCell id="8bt0EGpzoLc2UHUZODhH-111" value="+ Date getNgaySinh()" style="text;strokeColor=none;fillColor=none;align=left;verticalAlign=top;spacingLeft=4;spacingRight=4;overflow=hidden;rotatable=0;points=[[0,0.5],[1,0.5]];portConstraint=eastwest;whiteSpace=wrap;html=1;" vertex="1" parent="8bt0EGpzoLc2UHUZODhH-91">
          <mxGeometry y="528" width="160" height="26" as="geometry" />
        </mxCell>
        <mxCell id="8bt0EGpzoLc2UHUZODhH-112" value="+ void setNgaySinh()" style="text;strokeColor=none;fillColor=none;align=left;verticalAlign=top;spacingLeft=4;spacingRight=4;overflow=hidden;rotatable=0;points=[[0,0.5],[1,0.5]];portConstraint=eastwest;whiteSpace=wrap;html=1;" vertex="1" parent="8bt0EGpzoLc2UHUZODhH-91">
          <mxGeometry y="554" width="160" height="26" as="geometry" />
        </mxCell>
        <mxCell id="8bt0EGpzoLc2UHUZODhH-113" value="+ String getTennguoidung()" style="text;strokeColor=none;fillColor=none;align=left;verticalAlign=top;spacingLeft=4;spacingRight=4;overflow=hidden;rotatable=0;points=[[0,0.5],[1,0.5]];portConstraint=eastwest;whiteSpace=wrap;html=1;" vertex="1" parent="8bt0EGpzoLc2UHUZODhH-91">
          <mxGeometry y="580" width="160" height="26" as="geometry" />
        </mxCell>
        <mxCell id="8bt0EGpzoLc2UHUZODhH-114" value="+ void setTennguoidung()" style="text;strokeColor=none;fillColor=none;align=left;verticalAlign=top;spacingLeft=4;spacingRight=4;overflow=hidden;rotatable=0;points=[[0,0.5],[1,0.5]];portConstraint=eastwest;whiteSpace=wrap;html=1;" vertex="1" parent="8bt0EGpzoLc2UHUZODhH-91">
          <mxGeometry y="606" width="160" height="26" as="geometry" />
        </mxCell>
        <mxCell id="8bt0EGpzoLc2UHUZODhH-115" value="+ String getMatkhau()" style="text;strokeColor=none;fillColor=none;align=left;verticalAlign=top;spacingLeft=4;spacingRight=4;overflow=hidden;rotatable=0;points=[[0,0.5],[1,0.5]];portConstraint=eastwest;whiteSpace=wrap;html=1;" vertex="1" parent="8bt0EGpzoLc2UHUZODhH-91">
          <mxGeometry y="632" width="160" height="26" as="geometry" />
        </mxCell>
        <mxCell id="8bt0EGpzoLc2UHUZODhH-116" value="+ void setMatkhau()" style="text;strokeColor=none;fillColor=none;align=left;verticalAlign=top;spacingLeft=4;spacingRight=4;overflow=hidden;rotatable=0;points=[[0,0.5],[1,0.5]];portConstraint=eastwest;whiteSpace=wrap;html=1;" vertex="1" parent="8bt0EGpzoLc2UHUZODhH-91">
          <mxGeometry y="658" width="160" height="26" as="geometry" />
        </mxCell>
        <mxCell id="8bt0EGpzoLc2UHUZODhH-118" value="+ int getQuyen()" style="text;strokeColor=none;fillColor=none;align=left;verticalAlign=top;spacingLeft=4;spacingRight=4;overflow=hidden;rotatable=0;points=[[0,0.5],[1,0.5]];portConstraint=eastwest;whiteSpace=wrap;html=1;" vertex="1" parent="8bt0EGpzoLc2UHUZODhH-91">
          <mxGeometry y="684" width="160" height="26" as="geometry" />
        </mxCell>
        <mxCell id="8bt0EGpzoLc2UHUZODhH-119" value="+ void setQuyen()" style="text;strokeColor=none;fillColor=none;align=left;verticalAlign=top;spacingLeft=4;spacingRight=4;overflow=hidden;rotatable=0;points=[[0,0.5],[1,0.5]];portConstraint=eastwest;whiteSpace=wrap;html=1;" vertex="1" parent="8bt0EGpzoLc2UHUZODhH-91">
          <mxGeometry y="710" width="160" height="26" as="geometry" />
        </mxCell>
        <mxCell id="8bt0EGpzoLc2UHUZODhH-120" value="BatDongSanModel" style="swimlane;fontStyle=1;align=center;verticalAlign=top;childLayout=stackLayout;horizontal=1;startSize=26;horizontalStack=0;resizeParent=1;resizeParentMax=0;resizeLast=0;collapsible=1;marginBottom=0;whiteSpace=wrap;html=1;" vertex="1" parent="1">
          <mxGeometry x="120" y="1920" width="210" height="902" as="geometry" />
        </mxCell>
        <mxCell id="8bt0EGpzoLc2UHUZODhH-121" value="+ ID" style="text;strokeColor=none;fillColor=none;align=left;verticalAlign=top;spacingLeft=4;spacingRight=4;overflow=hidden;rotatable=0;points=[[0,0.5],[1,0.5]];portConstraint=eastwest;whiteSpace=wrap;html=1;" vertex="1" parent="8bt0EGpzoLc2UHUZODhH-120">
          <mxGeometry y="26" width="210" height="26" as="geometry" />
        </mxCell>
        <mxCell id="8bt0EGpzoLc2UHUZODhH-124" value="+ TenBDS" style="text;strokeColor=none;fillColor=none;align=left;verticalAlign=top;spacingLeft=4;spacingRight=4;overflow=hidden;rotatable=0;points=[[0,0.5],[1,0.5]];portConstraint=eastwest;whiteSpace=wrap;html=1;" vertex="1" parent="8bt0EGpzoLc2UHUZODhH-120">
          <mxGeometry y="52" width="210" height="26" as="geometry" />
        </mxCell>
        <mxCell id="8bt0EGpzoLc2UHUZODhH-125" value="+ Rong" style="text;strokeColor=none;fillColor=none;align=left;verticalAlign=top;spacingLeft=4;spacingRight=4;overflow=hidden;rotatable=0;points=[[0,0.5],[1,0.5]];portConstraint=eastwest;whiteSpace=wrap;html=1;" vertex="1" parent="8bt0EGpzoLc2UHUZODhH-120">
          <mxGeometry y="78" width="210" height="26" as="geometry" />
        </mxCell>
        <mxCell id="8bt0EGpzoLc2UHUZODhH-126" value="+ Dai" style="text;strokeColor=none;fillColor=none;align=left;verticalAlign=top;spacingLeft=4;spacingRight=4;overflow=hidden;rotatable=0;points=[[0,0.5],[1,0.5]];portConstraint=eastwest;whiteSpace=wrap;html=1;" vertex="1" parent="8bt0EGpzoLc2UHUZODhH-120">
          <mxGeometry y="104" width="210" height="26" as="geometry" />
        </mxCell>
        <mxCell id="8bt0EGpzoLc2UHUZODhH-127" value="+ Dientich" style="text;strokeColor=none;fillColor=none;align=left;verticalAlign=top;spacingLeft=4;spacingRight=4;overflow=hidden;rotatable=0;points=[[0,0.5],[1,0.5]];portConstraint=eastwest;whiteSpace=wrap;html=1;" vertex="1" parent="8bt0EGpzoLc2UHUZODhH-120">
          <mxGeometry y="130" width="210" height="26" as="geometry" />
        </mxCell>
        <mxCell id="8bt0EGpzoLc2UHUZODhH-128" value="+ Vitri vitri" style="text;strokeColor=none;fillColor=none;align=left;verticalAlign=top;spacingLeft=4;spacingRight=4;overflow=hidden;rotatable=0;points=[[0,0.5],[1,0.5]];portConstraint=eastwest;whiteSpace=wrap;html=1;" vertex="1" parent="8bt0EGpzoLc2UHUZODhH-120">
          <mxGeometry y="156" width="210" height="26" as="geometry" />
        </mxCell>
        <mxCell id="8bt0EGpzoLc2UHUZODhH-129" value="+ LoaiHinh loaihinhbds" style="text;strokeColor=none;fillColor=none;align=left;verticalAlign=top;spacingLeft=4;spacingRight=4;overflow=hidden;rotatable=0;points=[[0,0.5],[1,0.5]];portConstraint=eastwest;whiteSpace=wrap;html=1;" vertex="1" parent="8bt0EGpzoLc2UHUZODhH-120">
          <mxGeometry y="182" width="210" height="26" as="geometry" />
        </mxCell>
        <mxCell id="8bt0EGpzoLc2UHUZODhH-131" value="+ String dialy" style="text;strokeColor=none;fillColor=none;align=left;verticalAlign=top;spacingLeft=4;spacingRight=4;overflow=hidden;rotatable=0;points=[[0,0.5],[1,0.5]];portConstraint=eastwest;whiteSpace=wrap;html=1;" vertex="1" parent="8bt0EGpzoLc2UHUZODhH-120">
          <mxGeometry y="208" width="210" height="26" as="geometry" />
        </mxCell>
        <mxCell id="8bt0EGpzoLc2UHUZODhH-133" value="+ int sotang" style="text;strokeColor=none;fillColor=none;align=left;verticalAlign=top;spacingLeft=4;spacingRight=4;overflow=hidden;rotatable=0;points=[[0,0.5],[1,0.5]];portConstraint=eastwest;whiteSpace=wrap;html=1;" vertex="1" parent="8bt0EGpzoLc2UHUZODhH-120">
          <mxGeometry y="234" width="210" height="26" as="geometry" />
        </mxCell>
        <mxCell id="8bt0EGpzoLc2UHUZODhH-134" value="+ int sophongngu" style="text;strokeColor=none;fillColor=none;align=left;verticalAlign=top;spacingLeft=4;spacingRight=4;overflow=hidden;rotatable=0;points=[[0,0.5],[1,0.5]];portConstraint=eastwest;whiteSpace=wrap;html=1;" vertex="1" parent="8bt0EGpzoLc2UHUZODhH-120">
          <mxGeometry y="260" width="210" height="26" as="geometry" />
        </mxCell>
        <mxCell id="8bt0EGpzoLc2UHUZODhH-135" value="+ int sophongtam" style="text;strokeColor=none;fillColor=none;align=left;verticalAlign=top;spacingLeft=4;spacingRight=4;overflow=hidden;rotatable=0;points=[[0,0.5],[1,0.5]];portConstraint=eastwest;whiteSpace=wrap;html=1;" vertex="1" parent="8bt0EGpzoLc2UHUZODhH-120">
          <mxGeometry y="286" width="210" height="26" as="geometry" />
        </mxCell>
        <mxCell id="8bt0EGpzoLc2UHUZODhH-136" value="+ bool Dichvu" style="text;strokeColor=none;fillColor=none;align=left;verticalAlign=top;spacingLeft=4;spacingRight=4;overflow=hidden;rotatable=0;points=[[0,0.5],[1,0.5]];portConstraint=eastwest;whiteSpace=wrap;html=1;" vertex="1" parent="8bt0EGpzoLc2UHUZODhH-120">
          <mxGeometry y="312" width="210" height="26" as="geometry" />
        </mxCell>
        <mxCell id="8bt0EGpzoLc2UHUZODhH-137" value="+ double Gia" style="text;strokeColor=none;fillColor=none;align=left;verticalAlign=top;spacingLeft=4;spacingRight=4;overflow=hidden;rotatable=0;points=[[0,0.5],[1,0.5]];portConstraint=eastwest;whiteSpace=wrap;html=1;" vertex="1" parent="8bt0EGpzoLc2UHUZODhH-120">
          <mxGeometry y="338" width="210" height="26" as="geometry" />
        </mxCell>
        <mxCell id="8bt0EGpzoLc2UHUZODhH-138" value="+ string NVQL" style="text;strokeColor=none;fillColor=none;align=left;verticalAlign=top;spacingLeft=4;spacingRight=4;overflow=hidden;rotatable=0;points=[[0,0.5],[1,0.5]];portConstraint=eastwest;whiteSpace=wrap;html=1;" vertex="1" parent="8bt0EGpzoLc2UHUZODhH-120">
          <mxGeometry y="364" width="210" height="26" as="geometry" />
        </mxCell>
        <mxCell id="8bt0EGpzoLc2UHUZODhH-139" value="+ string Chusohuu" style="text;strokeColor=none;fillColor=none;align=left;verticalAlign=top;spacingLeft=4;spacingRight=4;overflow=hidden;rotatable=0;points=[[0,0.5],[1,0.5]];portConstraint=eastwest;whiteSpace=wrap;html=1;" vertex="1" parent="8bt0EGpzoLc2UHUZODhH-120">
          <mxGeometry y="390" width="210" height="26" as="geometry" />
        </mxCell>
        <mxCell id="8bt0EGpzoLc2UHUZODhH-140" value="+ Picture hinh" style="text;strokeColor=none;fillColor=none;align=left;verticalAlign=top;spacingLeft=4;spacingRight=4;overflow=hidden;rotatable=0;points=[[0,0.5],[1,0.5]];portConstraint=eastwest;whiteSpace=wrap;html=1;" vertex="1" parent="8bt0EGpzoLc2UHUZODhH-120">
          <mxGeometry y="416" width="210" height="26" as="geometry" />
        </mxCell>
        <mxCell id="8bt0EGpzoLc2UHUZODhH-141" value="+ bool trangthai" style="text;strokeColor=none;fillColor=none;align=left;verticalAlign=top;spacingLeft=4;spacingRight=4;overflow=hidden;rotatable=0;points=[[0,0.5],[1,0.5]];portConstraint=eastwest;whiteSpace=wrap;html=1;" vertex="1" parent="8bt0EGpzoLc2UHUZODhH-120">
          <mxGeometry y="442" width="210" height="26" as="geometry" />
        </mxCell>
        <mxCell id="8bt0EGpzoLc2UHUZODhH-122" value="" style="line;strokeWidth=1;fillColor=none;align=left;verticalAlign=middle;spacingTop=-1;spacingLeft=3;spacingRight=3;rotatable=0;labelPosition=right;points=[];portConstraint=eastwest;strokeColor=inherit;" vertex="1" parent="8bt0EGpzoLc2UHUZODhH-120">
          <mxGeometry y="468" width="210" height="8" as="geometry" />
        </mxCell>
        <mxCell id="8bt0EGpzoLc2UHUZODhH-123" value="+ setID(), getID()" style="text;strokeColor=none;fillColor=none;align=left;verticalAlign=top;spacingLeft=4;spacingRight=4;overflow=hidden;rotatable=0;points=[[0,0.5],[1,0.5]];portConstraint=eastwest;whiteSpace=wrap;html=1;" vertex="1" parent="8bt0EGpzoLc2UHUZODhH-120">
          <mxGeometry y="476" width="210" height="26" as="geometry" />
        </mxCell>
        <mxCell id="8bt0EGpzoLc2UHUZODhH-142" value="+ setTenBDS(), getTenBDS()" style="text;strokeColor=none;fillColor=none;align=left;verticalAlign=top;spacingLeft=4;spacingRight=4;overflow=hidden;rotatable=0;points=[[0,0.5],[1,0.5]];portConstraint=eastwest;whiteSpace=wrap;html=1;" vertex="1" parent="8bt0EGpzoLc2UHUZODhH-120">
          <mxGeometry y="502" width="210" height="18" as="geometry" />
        </mxCell>
        <mxCell id="8bt0EGpzoLc2UHUZODhH-143" value="+ setDai(), getDai()" style="text;strokeColor=none;fillColor=none;align=left;verticalAlign=top;spacingLeft=4;spacingRight=4;overflow=hidden;rotatable=0;points=[[0,0.5],[1,0.5]];portConstraint=eastwest;whiteSpace=wrap;html=1;" vertex="1" parent="8bt0EGpzoLc2UHUZODhH-120">
          <mxGeometry y="520" width="210" height="26" as="geometry" />
        </mxCell>
        <mxCell id="8bt0EGpzoLc2UHUZODhH-144" value="+ setRong(), getRong()" style="text;strokeColor=none;fillColor=none;align=left;verticalAlign=top;spacingLeft=4;spacingRight=4;overflow=hidden;rotatable=0;points=[[0,0.5],[1,0.5]];portConstraint=eastwest;whiteSpace=wrap;html=1;" vertex="1" parent="8bt0EGpzoLc2UHUZODhH-120">
          <mxGeometry y="546" width="210" height="26" as="geometry" />
        </mxCell>
        <mxCell id="8bt0EGpzoLc2UHUZODhH-145" value="+ setDientich(), getDientich()" style="text;strokeColor=none;fillColor=none;align=left;verticalAlign=top;spacingLeft=4;spacingRight=4;overflow=hidden;rotatable=0;points=[[0,0.5],[1,0.5]];portConstraint=eastwest;whiteSpace=wrap;html=1;" vertex="1" parent="8bt0EGpzoLc2UHUZODhH-120">
          <mxGeometry y="572" width="210" height="26" as="geometry" />
        </mxCell>
        <mxCell id="8bt0EGpzoLc2UHUZODhH-146" value="+ setdialy(), getdialy()" style="text;strokeColor=none;fillColor=none;align=left;verticalAlign=top;spacingLeft=4;spacingRight=4;overflow=hidden;rotatable=0;points=[[0,0.5],[1,0.5]];portConstraint=eastwest;whiteSpace=wrap;html=1;" vertex="1" parent="8bt0EGpzoLc2UHUZODhH-120">
          <mxGeometry y="598" width="210" height="26" as="geometry" />
        </mxCell>
        <mxCell id="8bt0EGpzoLc2UHUZODhH-147" value="+ setsotang(), getsotang()" style="text;strokeColor=none;fillColor=none;align=left;verticalAlign=top;spacingLeft=4;spacingRight=4;overflow=hidden;rotatable=0;points=[[0,0.5],[1,0.5]];portConstraint=eastwest;whiteSpace=wrap;html=1;" vertex="1" parent="8bt0EGpzoLc2UHUZODhH-120">
          <mxGeometry y="624" width="210" height="26" as="geometry" />
        </mxCell>
        <mxCell id="8bt0EGpzoLc2UHUZODhH-148" value="+ setVitri(), getVitri()" style="text;strokeColor=none;fillColor=none;align=left;verticalAlign=top;spacingLeft=4;spacingRight=4;overflow=hidden;rotatable=0;points=[[0,0.5],[1,0.5]];portConstraint=eastwest;whiteSpace=wrap;html=1;" vertex="1" parent="8bt0EGpzoLc2UHUZODhH-120">
          <mxGeometry y="650" width="210" height="26" as="geometry" />
        </mxCell>
        <mxCell id="8bt0EGpzoLc2UHUZODhH-149" value="+ setLoaihinh(), getLoaihinh()" style="text;strokeColor=none;fillColor=none;align=left;verticalAlign=top;spacingLeft=4;spacingRight=4;overflow=hidden;rotatable=0;points=[[0,0.5],[1,0.5]];portConstraint=eastwest;whiteSpace=wrap;html=1;" vertex="1" parent="8bt0EGpzoLc2UHUZODhH-120">
          <mxGeometry y="676" width="210" height="26" as="geometry" />
        </mxCell>
        <mxCell id="8bt0EGpzoLc2UHUZODhH-150" value="+ setsophongngu(), getsophongngu()" style="text;strokeColor=none;fillColor=none;align=left;verticalAlign=top;spacingLeft=4;spacingRight=4;overflow=hidden;rotatable=0;points=[[0,0.5],[1,0.5]];portConstraint=eastwest;whiteSpace=wrap;html=1;" vertex="1" parent="8bt0EGpzoLc2UHUZODhH-120">
          <mxGeometry y="702" width="210" height="18" as="geometry" />
        </mxCell>
        <mxCell id="8bt0EGpzoLc2UHUZODhH-151" value="+ setsophongtam(), getsophongtam()" style="text;strokeColor=none;fillColor=none;align=left;verticalAlign=top;spacingLeft=4;spacingRight=4;overflow=hidden;rotatable=0;points=[[0,0.5],[1,0.5]];portConstraint=eastwest;whiteSpace=wrap;html=1;" vertex="1" parent="8bt0EGpzoLc2UHUZODhH-120">
          <mxGeometry y="720" width="210" height="26" as="geometry" />
        </mxCell>
        <mxCell id="8bt0EGpzoLc2UHUZODhH-152" value="+ setDichvu(), getDichvu()" style="text;strokeColor=none;fillColor=none;align=left;verticalAlign=top;spacingLeft=4;spacingRight=4;overflow=hidden;rotatable=0;points=[[0,0.5],[1,0.5]];portConstraint=eastwest;whiteSpace=wrap;html=1;" vertex="1" parent="8bt0EGpzoLc2UHUZODhH-120">
          <mxGeometry y="746" width="210" height="26" as="geometry" />
        </mxCell>
        <mxCell id="8bt0EGpzoLc2UHUZODhH-153" value="+ setGia(), getGia()" style="text;strokeColor=none;fillColor=none;align=left;verticalAlign=top;spacingLeft=4;spacingRight=4;overflow=hidden;rotatable=0;points=[[0,0.5],[1,0.5]];portConstraint=eastwest;whiteSpace=wrap;html=1;" vertex="1" parent="8bt0EGpzoLc2UHUZODhH-120">
          <mxGeometry y="772" width="210" height="26" as="geometry" />
        </mxCell>
        <mxCell id="8bt0EGpzoLc2UHUZODhH-154" value="+ setNVQL(), getNVQL()" style="text;strokeColor=none;fillColor=none;align=left;verticalAlign=top;spacingLeft=4;spacingRight=4;overflow=hidden;rotatable=0;points=[[0,0.5],[1,0.5]];portConstraint=eastwest;whiteSpace=wrap;html=1;" vertex="1" parent="8bt0EGpzoLc2UHUZODhH-120">
          <mxGeometry y="798" width="210" height="26" as="geometry" />
        </mxCell>
        <mxCell id="8bt0EGpzoLc2UHUZODhH-155" value="+ setChusohuu(), getChusohuu()" style="text;strokeColor=none;fillColor=none;align=left;verticalAlign=top;spacingLeft=4;spacingRight=4;overflow=hidden;rotatable=0;points=[[0,0.5],[1,0.5]];portConstraint=eastwest;whiteSpace=wrap;html=1;" vertex="1" parent="8bt0EGpzoLc2UHUZODhH-120">
          <mxGeometry y="824" width="210" height="26" as="geometry" />
        </mxCell>
        <mxCell id="8bt0EGpzoLc2UHUZODhH-156" value="+ sethinh(), gethinh()" style="text;strokeColor=none;fillColor=none;align=left;verticalAlign=top;spacingLeft=4;spacingRight=4;overflow=hidden;rotatable=0;points=[[0,0.5],[1,0.5]];portConstraint=eastwest;whiteSpace=wrap;html=1;" vertex="1" parent="8bt0EGpzoLc2UHUZODhH-120">
          <mxGeometry y="850" width="210" height="26" as="geometry" />
        </mxCell>
        <mxCell id="8bt0EGpzoLc2UHUZODhH-157" value="+ setTrangthai(), getTrangthai()" style="text;strokeColor=none;fillColor=none;align=left;verticalAlign=top;spacingLeft=4;spacingRight=4;overflow=hidden;rotatable=0;points=[[0,0.5],[1,0.5]];portConstraint=eastwest;whiteSpace=wrap;html=1;" vertex="1" parent="8bt0EGpzoLc2UHUZODhH-120">
          <mxGeometry y="876" width="210" height="26" as="geometry" />
        </mxCell>
        <mxCell id="8bt0EGpzoLc2UHUZODhH-158" value="PictureModel" style="swimlane;fontStyle=1;align=center;verticalAlign=top;childLayout=stackLayout;horizontal=1;startSize=26;horizontalStack=0;resizeParent=1;resizeParentMax=0;resizeLast=0;collapsible=1;marginBottom=0;whiteSpace=wrap;html=1;" vertex="1" parent="1">
          <mxGeometry x="135" y="2930" width="160" height="268" as="geometry" />
        </mxCell>
        <mxCell id="8bt0EGpzoLc2UHUZODhH-159" value="+ PICID" style="text;strokeColor=none;fillColor=none;align=left;verticalAlign=top;spacingLeft=4;spacingRight=4;overflow=hidden;rotatable=0;points=[[0,0.5],[1,0.5]];portConstraint=eastwest;whiteSpace=wrap;html=1;" vertex="1" parent="8bt0EGpzoLc2UHUZODhH-158">
          <mxGeometry y="26" width="160" height="26" as="geometry" />
        </mxCell>
        <mxCell id="8bt0EGpzoLc2UHUZODhH-162" value="+ Link" style="text;strokeColor=none;fillColor=none;align=left;verticalAlign=top;spacingLeft=4;spacingRight=4;overflow=hidden;rotatable=0;points=[[0,0.5],[1,0.5]];portConstraint=eastwest;whiteSpace=wrap;html=1;" vertex="1" parent="8bt0EGpzoLc2UHUZODhH-158">
          <mxGeometry y="52" width="160" height="26" as="geometry" />
        </mxCell>
        <mxCell id="8bt0EGpzoLc2UHUZODhH-163" value="+ MABDS" style="text;strokeColor=none;fillColor=none;align=left;verticalAlign=top;spacingLeft=4;spacingRight=4;overflow=hidden;rotatable=0;points=[[0,0.5],[1,0.5]];portConstraint=eastwest;whiteSpace=wrap;html=1;" vertex="1" parent="8bt0EGpzoLc2UHUZODhH-158">
          <mxGeometry y="78" width="160" height="26" as="geometry" />
        </mxCell>
        <mxCell id="8bt0EGpzoLc2UHUZODhH-160" value="" style="line;strokeWidth=1;fillColor=none;align=left;verticalAlign=middle;spacingTop=-1;spacingLeft=3;spacingRight=3;rotatable=0;labelPosition=right;points=[];portConstraint=eastwest;strokeColor=inherit;" vertex="1" parent="8bt0EGpzoLc2UHUZODhH-158">
          <mxGeometry y="104" width="160" height="8" as="geometry" />
        </mxCell>
        <mxCell id="8bt0EGpzoLc2UHUZODhH-161" value="+ int getPICID()" style="text;strokeColor=none;fillColor=none;align=left;verticalAlign=top;spacingLeft=4;spacingRight=4;overflow=hidden;rotatable=0;points=[[0,0.5],[1,0.5]];portConstraint=eastwest;whiteSpace=wrap;html=1;" vertex="1" parent="8bt0EGpzoLc2UHUZODhH-158">
          <mxGeometry y="112" width="160" height="26" as="geometry" />
        </mxCell>
        <mxCell id="8bt0EGpzoLc2UHUZODhH-164" value="+ void setPICID()" style="text;strokeColor=none;fillColor=none;align=left;verticalAlign=top;spacingLeft=4;spacingRight=4;overflow=hidden;rotatable=0;points=[[0,0.5],[1,0.5]];portConstraint=eastwest;whiteSpace=wrap;html=1;" vertex="1" parent="8bt0EGpzoLc2UHUZODhH-158">
          <mxGeometry y="138" width="160" height="26" as="geometry" />
        </mxCell>
        <mxCell id="8bt0EGpzoLc2UHUZODhH-165" value="+ String getLink()" style="text;strokeColor=none;fillColor=none;align=left;verticalAlign=top;spacingLeft=4;spacingRight=4;overflow=hidden;rotatable=0;points=[[0,0.5],[1,0.5]];portConstraint=eastwest;whiteSpace=wrap;html=1;" vertex="1" parent="8bt0EGpzoLc2UHUZODhH-158">
          <mxGeometry y="164" width="160" height="26" as="geometry" />
        </mxCell>
        <mxCell id="8bt0EGpzoLc2UHUZODhH-166" value="+ void setLink()" style="text;strokeColor=none;fillColor=none;align=left;verticalAlign=top;spacingLeft=4;spacingRight=4;overflow=hidden;rotatable=0;points=[[0,0.5],[1,0.5]];portConstraint=eastwest;whiteSpace=wrap;html=1;" vertex="1" parent="8bt0EGpzoLc2UHUZODhH-158">
          <mxGeometry y="190" width="160" height="26" as="geometry" />
        </mxCell>
        <mxCell id="8bt0EGpzoLc2UHUZODhH-167" value="+ String getMABDS()" style="text;strokeColor=none;fillColor=none;align=left;verticalAlign=top;spacingLeft=4;spacingRight=4;overflow=hidden;rotatable=0;points=[[0,0.5],[1,0.5]];portConstraint=eastwest;whiteSpace=wrap;html=1;" vertex="1" parent="8bt0EGpzoLc2UHUZODhH-158">
          <mxGeometry y="216" width="160" height="26" as="geometry" />
        </mxCell>
        <mxCell id="8bt0EGpzoLc2UHUZODhH-168" value="+ void setMABDS()" style="text;strokeColor=none;fillColor=none;align=left;verticalAlign=top;spacingLeft=4;spacingRight=4;overflow=hidden;rotatable=0;points=[[0,0.5],[1,0.5]];portConstraint=eastwest;whiteSpace=wrap;html=1;" vertex="1" parent="8bt0EGpzoLc2UHUZODhH-158">
          <mxGeometry y="242" width="160" height="26" as="geometry" />
        </mxCell>
        <mxCell id="8bt0EGpzoLc2UHUZODhH-169" value="LoaihinhBDSModel" style="swimlane;fontStyle=1;align=center;verticalAlign=top;childLayout=stackLayout;horizontal=1;startSize=26;horizontalStack=0;resizeParent=1;resizeParentMax=0;resizeLast=0;collapsible=1;marginBottom=0;whiteSpace=wrap;html=1;" vertex="1" parent="1">
          <mxGeometry x="500" y="2090" width="190" height="346" as="geometry" />
        </mxCell>
        <mxCell id="8bt0EGpzoLc2UHUZODhH-170" value="+ MaLoaiHinh" style="text;strokeColor=none;fillColor=none;align=left;verticalAlign=top;spacingLeft=4;spacingRight=4;overflow=hidden;rotatable=0;points=[[0,0.5],[1,0.5]];portConstraint=eastwest;whiteSpace=wrap;html=1;" vertex="1" parent="8bt0EGpzoLc2UHUZODhH-169">
          <mxGeometry y="26" width="190" height="26" as="geometry" />
        </mxCell>
        <mxCell id="8bt0EGpzoLc2UHUZODhH-176" value="+ TenLoaiHinh" style="text;strokeColor=none;fillColor=none;align=left;verticalAlign=top;spacingLeft=4;spacingRight=4;overflow=hidden;rotatable=0;points=[[0,0.5],[1,0.5]];portConstraint=eastwest;whiteSpace=wrap;html=1;" vertex="1" parent="8bt0EGpzoLc2UHUZODhH-169">
          <mxGeometry y="52" width="190" height="26" as="geometry" />
        </mxCell>
        <mxCell id="8bt0EGpzoLc2UHUZODhH-173" value="+ NhomBDS" style="text;strokeColor=none;fillColor=none;align=left;verticalAlign=top;spacingLeft=4;spacingRight=4;overflow=hidden;rotatable=0;points=[[0,0.5],[1,0.5]];portConstraint=eastwest;whiteSpace=wrap;html=1;" vertex="1" parent="8bt0EGpzoLc2UHUZODhH-169">
          <mxGeometry y="78" width="190" height="26" as="geometry" />
        </mxCell>
        <mxCell id="8bt0EGpzoLc2UHUZODhH-174" value="+ Mucdichsudung" style="text;strokeColor=none;fillColor=none;align=left;verticalAlign=top;spacingLeft=4;spacingRight=4;overflow=hidden;rotatable=0;points=[[0,0.5],[1,0.5]];portConstraint=eastwest;whiteSpace=wrap;html=1;" vertex="1" parent="8bt0EGpzoLc2UHUZODhH-169">
          <mxGeometry y="104" width="190" height="26" as="geometry" />
        </mxCell>
        <mxCell id="8bt0EGpzoLc2UHUZODhH-171" value="" style="line;strokeWidth=1;fillColor=none;align=left;verticalAlign=middle;spacingTop=-1;spacingLeft=3;spacingRight=3;rotatable=0;labelPosition=right;points=[];portConstraint=eastwest;strokeColor=inherit;" vertex="1" parent="8bt0EGpzoLc2UHUZODhH-169">
          <mxGeometry y="130" width="190" height="8" as="geometry" />
        </mxCell>
        <mxCell id="8bt0EGpzoLc2UHUZODhH-172" value="+ int getMaLH()" style="text;strokeColor=none;fillColor=none;align=left;verticalAlign=top;spacingLeft=4;spacingRight=4;overflow=hidden;rotatable=0;points=[[0,0.5],[1,0.5]];portConstraint=eastwest;whiteSpace=wrap;html=1;" vertex="1" parent="8bt0EGpzoLc2UHUZODhH-169">
          <mxGeometry y="138" width="190" height="26" as="geometry" />
        </mxCell>
        <mxCell id="8bt0EGpzoLc2UHUZODhH-175" value="+ void setMaLH()" style="text;strokeColor=none;fillColor=none;align=left;verticalAlign=top;spacingLeft=4;spacingRight=4;overflow=hidden;rotatable=0;points=[[0,0.5],[1,0.5]];portConstraint=eastwest;whiteSpace=wrap;html=1;" vertex="1" parent="8bt0EGpzoLc2UHUZODhH-169">
          <mxGeometry y="164" width="190" height="26" as="geometry" />
        </mxCell>
        <mxCell id="8bt0EGpzoLc2UHUZODhH-177" value="+ String getTenLoaiHinh()" style="text;strokeColor=none;fillColor=none;align=left;verticalAlign=top;spacingLeft=4;spacingRight=4;overflow=hidden;rotatable=0;points=[[0,0.5],[1,0.5]];portConstraint=eastwest;whiteSpace=wrap;html=1;" vertex="1" parent="8bt0EGpzoLc2UHUZODhH-169">
          <mxGeometry y="190" width="190" height="26" as="geometry" />
        </mxCell>
        <mxCell id="8bt0EGpzoLc2UHUZODhH-178" value="+ void setTenLoaiHinh()" style="text;strokeColor=none;fillColor=none;align=left;verticalAlign=top;spacingLeft=4;spacingRight=4;overflow=hidden;rotatable=0;points=[[0,0.5],[1,0.5]];portConstraint=eastwest;whiteSpace=wrap;html=1;" vertex="1" parent="8bt0EGpzoLc2UHUZODhH-169">
          <mxGeometry y="216" width="190" height="26" as="geometry" />
        </mxCell>
        <mxCell id="8bt0EGpzoLc2UHUZODhH-179" value="+ String getNhomBDS()" style="text;strokeColor=none;fillColor=none;align=left;verticalAlign=top;spacingLeft=4;spacingRight=4;overflow=hidden;rotatable=0;points=[[0,0.5],[1,0.5]];portConstraint=eastwest;whiteSpace=wrap;html=1;" vertex="1" parent="8bt0EGpzoLc2UHUZODhH-169">
          <mxGeometry y="242" width="190" height="26" as="geometry" />
        </mxCell>
        <mxCell id="8bt0EGpzoLc2UHUZODhH-180" value="+ void setNhomBDS()" style="text;strokeColor=none;fillColor=none;align=left;verticalAlign=top;spacingLeft=4;spacingRight=4;overflow=hidden;rotatable=0;points=[[0,0.5],[1,0.5]];portConstraint=eastwest;whiteSpace=wrap;html=1;" vertex="1" parent="8bt0EGpzoLc2UHUZODhH-169">
          <mxGeometry y="268" width="190" height="26" as="geometry" />
        </mxCell>
        <mxCell id="8bt0EGpzoLc2UHUZODhH-181" value="+ String getmucdichsudung()" style="text;strokeColor=none;fillColor=none;align=left;verticalAlign=top;spacingLeft=4;spacingRight=4;overflow=hidden;rotatable=0;points=[[0,0.5],[1,0.5]];portConstraint=eastwest;whiteSpace=wrap;html=1;" vertex="1" parent="8bt0EGpzoLc2UHUZODhH-169">
          <mxGeometry y="294" width="190" height="26" as="geometry" />
        </mxCell>
        <mxCell id="8bt0EGpzoLc2UHUZODhH-182" value="+ void setmucdichsudung()" style="text;strokeColor=none;fillColor=none;align=left;verticalAlign=top;spacingLeft=4;spacingRight=4;overflow=hidden;rotatable=0;points=[[0,0.5],[1,0.5]];portConstraint=eastwest;whiteSpace=wrap;html=1;" vertex="1" parent="8bt0EGpzoLc2UHUZODhH-169">
          <mxGeometry y="320" width="190" height="26" as="geometry" />
        </mxCell>
        <mxCell id="8bt0EGpzoLc2UHUZODhH-189" value="VitriModel" style="swimlane;fontStyle=1;align=center;verticalAlign=top;childLayout=stackLayout;horizontal=1;startSize=26;horizontalStack=0;resizeParent=1;resizeParentMax=0;resizeLast=0;collapsible=1;marginBottom=0;whiteSpace=wrap;html=1;" vertex="1" parent="1">
          <mxGeometry x="-320" y="2060" width="160" height="346" as="geometry" />
        </mxCell>
        <mxCell id="8bt0EGpzoLc2UHUZODhH-190" value="+ MaViTri" style="text;strokeColor=none;fillColor=none;align=left;verticalAlign=top;spacingLeft=4;spacingRight=4;overflow=hidden;rotatable=0;points=[[0,0.5],[1,0.5]];portConstraint=eastwest;whiteSpace=wrap;html=1;" vertex="1" parent="8bt0EGpzoLc2UHUZODhH-189">
          <mxGeometry y="26" width="160" height="26" as="geometry" />
        </mxCell>
        <mxCell id="8bt0EGpzoLc2UHUZODhH-191" value="+ Quan" style="text;strokeColor=none;fillColor=none;align=left;verticalAlign=top;spacingLeft=4;spacingRight=4;overflow=hidden;rotatable=0;points=[[0,0.5],[1,0.5]];portConstraint=eastwest;whiteSpace=wrap;html=1;" vertex="1" parent="8bt0EGpzoLc2UHUZODhH-189">
          <mxGeometry y="52" width="160" height="26" as="geometry" />
        </mxCell>
        <mxCell id="8bt0EGpzoLc2UHUZODhH-192" value="+ Thanhpho" style="text;strokeColor=none;fillColor=none;align=left;verticalAlign=top;spacingLeft=4;spacingRight=4;overflow=hidden;rotatable=0;points=[[0,0.5],[1,0.5]];portConstraint=eastwest;whiteSpace=wrap;html=1;" vertex="1" parent="8bt0EGpzoLc2UHUZODhH-189">
          <mxGeometry y="78" width="160" height="26" as="geometry" />
        </mxCell>
        <mxCell id="8bt0EGpzoLc2UHUZODhH-193" value="+ Quocgia" style="text;strokeColor=none;fillColor=none;align=left;verticalAlign=top;spacingLeft=4;spacingRight=4;overflow=hidden;rotatable=0;points=[[0,0.5],[1,0.5]];portConstraint=eastwest;whiteSpace=wrap;html=1;" vertex="1" parent="8bt0EGpzoLc2UHUZODhH-189">
          <mxGeometry y="104" width="160" height="26" as="geometry" />
        </mxCell>
        <mxCell id="8bt0EGpzoLc2UHUZODhH-194" value="" style="line;strokeWidth=1;fillColor=none;align=left;verticalAlign=middle;spacingTop=-1;spacingLeft=3;spacingRight=3;rotatable=0;labelPosition=right;points=[];portConstraint=eastwest;strokeColor=inherit;" vertex="1" parent="8bt0EGpzoLc2UHUZODhH-189">
          <mxGeometry y="130" width="160" height="8" as="geometry" />
        </mxCell>
        <mxCell id="8bt0EGpzoLc2UHUZODhH-195" value="+ int getMavitri()" style="text;strokeColor=none;fillColor=none;align=left;verticalAlign=top;spacingLeft=4;spacingRight=4;overflow=hidden;rotatable=0;points=[[0,0.5],[1,0.5]];portConstraint=eastwest;whiteSpace=wrap;html=1;" vertex="1" parent="8bt0EGpzoLc2UHUZODhH-189">
          <mxGeometry y="138" width="160" height="26" as="geometry" />
        </mxCell>
        <mxCell id="8bt0EGpzoLc2UHUZODhH-196" value="+ void setMaVitri()" style="text;strokeColor=none;fillColor=none;align=left;verticalAlign=top;spacingLeft=4;spacingRight=4;overflow=hidden;rotatable=0;points=[[0,0.5],[1,0.5]];portConstraint=eastwest;whiteSpace=wrap;html=1;" vertex="1" parent="8bt0EGpzoLc2UHUZODhH-189">
          <mxGeometry y="164" width="160" height="26" as="geometry" />
        </mxCell>
        <mxCell id="8bt0EGpzoLc2UHUZODhH-197" value="+ String getQuan()" style="text;strokeColor=none;fillColor=none;align=left;verticalAlign=top;spacingLeft=4;spacingRight=4;overflow=hidden;rotatable=0;points=[[0,0.5],[1,0.5]];portConstraint=eastwest;whiteSpace=wrap;html=1;" vertex="1" parent="8bt0EGpzoLc2UHUZODhH-189">
          <mxGeometry y="190" width="160" height="26" as="geometry" />
        </mxCell>
        <mxCell id="8bt0EGpzoLc2UHUZODhH-198" value="+ void setQuan()" style="text;strokeColor=none;fillColor=none;align=left;verticalAlign=top;spacingLeft=4;spacingRight=4;overflow=hidden;rotatable=0;points=[[0,0.5],[1,0.5]];portConstraint=eastwest;whiteSpace=wrap;html=1;" vertex="1" parent="8bt0EGpzoLc2UHUZODhH-189">
          <mxGeometry y="216" width="160" height="26" as="geometry" />
        </mxCell>
        <mxCell id="8bt0EGpzoLc2UHUZODhH-199" value="+ String getThanhpho()" style="text;strokeColor=none;fillColor=none;align=left;verticalAlign=top;spacingLeft=4;spacingRight=4;overflow=hidden;rotatable=0;points=[[0,0.5],[1,0.5]];portConstraint=eastwest;whiteSpace=wrap;html=1;" vertex="1" parent="8bt0EGpzoLc2UHUZODhH-189">
          <mxGeometry y="242" width="160" height="26" as="geometry" />
        </mxCell>
        <mxCell id="8bt0EGpzoLc2UHUZODhH-200" value="+ void setThanhpho()" style="text;strokeColor=none;fillColor=none;align=left;verticalAlign=top;spacingLeft=4;spacingRight=4;overflow=hidden;rotatable=0;points=[[0,0.5],[1,0.5]];portConstraint=eastwest;whiteSpace=wrap;html=1;" vertex="1" parent="8bt0EGpzoLc2UHUZODhH-189">
          <mxGeometry y="268" width="160" height="26" as="geometry" />
        </mxCell>
        <mxCell id="8bt0EGpzoLc2UHUZODhH-201" value="+ String getQuocgia()" style="text;strokeColor=none;fillColor=none;align=left;verticalAlign=top;spacingLeft=4;spacingRight=4;overflow=hidden;rotatable=0;points=[[0,0.5],[1,0.5]];portConstraint=eastwest;whiteSpace=wrap;html=1;" vertex="1" parent="8bt0EGpzoLc2UHUZODhH-189">
          <mxGeometry y="294" width="160" height="26" as="geometry" />
        </mxCell>
        <mxCell id="8bt0EGpzoLc2UHUZODhH-202" value="+ void setQuocgia()" style="text;strokeColor=none;fillColor=none;align=left;verticalAlign=top;spacingLeft=4;spacingRight=4;overflow=hidden;rotatable=0;points=[[0,0.5],[1,0.5]];portConstraint=eastwest;whiteSpace=wrap;html=1;" vertex="1" parent="8bt0EGpzoLc2UHUZODhH-189">
          <mxGeometry y="320" width="160" height="26" as="geometry" />
        </mxCell>
        <mxCell id="8bt0EGpzoLc2UHUZODhH-204" value="" style="endArrow=none;html=1;rounded=0;exitX=1;exitY=0.5;exitDx=0;exitDy=0;" edge="1" parent="1" source="8bt0EGpzoLc2UHUZODhH-29">
          <mxGeometry width="50" height="50" relative="1" as="geometry">
            <mxPoint x="220" y="1020" as="sourcePoint" />
            <mxPoint x="120" y="1290" as="targetPoint" />
            <Array as="points">
              <mxPoint x="70" y="949" />
              <mxPoint x="70" y="1290" />
            </Array>
          </mxGeometry>
        </mxCell>
        <mxCell id="8bt0EGpzoLc2UHUZODhH-205" value="n" style="text;html=1;align=center;verticalAlign=middle;resizable=0;points=[];autosize=1;strokeColor=none;fillColor=none;" vertex="1" parent="1">
          <mxGeometry x="-10" y="906" width="30" height="30" as="geometry" />
        </mxCell>
        <mxCell id="8bt0EGpzoLc2UHUZODhH-206" value="1" style="text;html=1;align=center;verticalAlign=middle;resizable=0;points=[];autosize=1;strokeColor=none;fillColor=none;" vertex="1" parent="1">
          <mxGeometry x="85" y="1248" width="30" height="30" as="geometry" />
        </mxCell>
        <mxCell id="8bt0EGpzoLc2UHUZODhH-208" value="" style="endArrow=none;html=1;rounded=0;exitX=1;exitY=0.5;exitDx=0;exitDy=0;entryX=1;entryY=0.5;entryDx=0;entryDy=0;" edge="1" parent="1" source="8bt0EGpzoLc2UHUZODhH-54" target="8bt0EGpzoLc2UHUZODhH-98">
          <mxGeometry width="50" height="50" relative="1" as="geometry">
            <mxPoint x="320" y="1030" as="sourcePoint" />
            <mxPoint x="370" y="980" as="targetPoint" />
            <Array as="points">
              <mxPoint x="360" y="780" />
              <mxPoint x="360" y="1235" />
            </Array>
          </mxGeometry>
        </mxCell>
        <mxCell id="8bt0EGpzoLc2UHUZODhH-209" value="1" style="text;html=1;align=center;verticalAlign=middle;resizable=0;points=[];autosize=1;strokeColor=none;fillColor=none;" vertex="1" parent="1">
          <mxGeometry x="285" y="1238" width="30" height="30" as="geometry" />
        </mxCell>
        <mxCell id="8bt0EGpzoLc2UHUZODhH-210" value="n" style="text;html=1;align=center;verticalAlign=middle;resizable=0;points=[];autosize=1;strokeColor=none;fillColor=none;" vertex="1" parent="1">
          <mxGeometry x="290" y="780" width="30" height="30" as="geometry" />
        </mxCell>
        <mxCell id="8bt0EGpzoLc2UHUZODhH-211" value="" style="endArrow=none;html=1;rounded=0;entryX=0.569;entryY=1.077;entryDx=0;entryDy=0;entryPerimeter=0;exitX=1.019;exitY=1.154;exitDx=0;exitDy=0;exitPerimeter=0;" edge="1" parent="1" source="8bt0EGpzoLc2UHUZODhH-105" target="8bt0EGpzoLc2UHUZODhH-80">
          <mxGeometry width="50" height="50" relative="1" as="geometry">
            <mxPoint x="460" y="1160" as="sourcePoint" />
            <mxPoint x="510" y="1110" as="targetPoint" />
            <Array as="points">
              <mxPoint x="510" y="1440" />
            </Array>
          </mxGeometry>
        </mxCell>
        <mxCell id="8bt0EGpzoLc2UHUZODhH-212" value="n" style="text;html=1;align=center;verticalAlign=middle;resizable=0;points=[];autosize=1;strokeColor=none;fillColor=none;" vertex="1" parent="1">
          <mxGeometry x="505" y="998" width="30" height="30" as="geometry" />
        </mxCell>
        <mxCell id="8bt0EGpzoLc2UHUZODhH-213" value="1" style="text;html=1;align=center;verticalAlign=middle;resizable=0;points=[];autosize=1;strokeColor=none;fillColor=none;" vertex="1" parent="1">
          <mxGeometry x="295" y="1458" width="30" height="30" as="geometry" />
        </mxCell>
        <mxCell id="8bt0EGpzoLc2UHUZODhH-214" value="" style="endArrow=none;html=1;rounded=0;exitX=1;exitY=0.5;exitDx=0;exitDy=0;entryX=0.014;entryY=0.923;entryDx=0;entryDy=0;entryPerimeter=0;" edge="1" parent="1" source="8bt0EGpzoLc2UHUZODhH-193" target="8bt0EGpzoLc2UHUZODhH-133">
          <mxGeometry width="50" height="50" relative="1" as="geometry">
            <mxPoint x="-80" y="2220" as="sourcePoint" />
            <mxPoint x="-30" y="2170" as="targetPoint" />
          </mxGeometry>
        </mxCell>
        <mxCell id="8bt0EGpzoLc2UHUZODhH-215" value="1" style="text;html=1;align=center;verticalAlign=middle;resizable=0;points=[];autosize=1;strokeColor=none;fillColor=none;" vertex="1" parent="1">
          <mxGeometry x="-155" y="2128" width="30" height="30" as="geometry" />
        </mxCell>
        <mxCell id="8bt0EGpzoLc2UHUZODhH-216" value="1" style="text;html=1;align=center;verticalAlign=middle;resizable=0;points=[];autosize=1;strokeColor=none;fillColor=none;" vertex="1" parent="1">
          <mxGeometry x="75" y="2128" width="30" height="30" as="geometry" />
        </mxCell>
        <mxCell id="8bt0EGpzoLc2UHUZODhH-217" value="" style="endArrow=none;html=1;rounded=0;exitX=1;exitY=0.5;exitDx=0;exitDy=0;entryX=-0.011;entryY=0.885;entryDx=0;entryDy=0;entryPerimeter=0;" edge="1" parent="1" source="8bt0EGpzoLc2UHUZODhH-134" target="8bt0EGpzoLc2UHUZODhH-173">
          <mxGeometry width="50" height="50" relative="1" as="geometry">
            <mxPoint x="390" y="2210" as="sourcePoint" />
            <mxPoint x="440" y="2160" as="targetPoint" />
          </mxGeometry>
        </mxCell>
        <mxCell id="8bt0EGpzoLc2UHUZODhH-218" value="1" style="text;html=1;align=center;verticalAlign=middle;resizable=0;points=[];autosize=1;strokeColor=none;fillColor=none;" vertex="1" parent="1">
          <mxGeometry x="470" y="2148" width="30" height="30" as="geometry" />
        </mxCell>
        <mxCell id="8bt0EGpzoLc2UHUZODhH-219" value="n" style="text;html=1;align=center;verticalAlign=middle;resizable=0;points=[];autosize=1;strokeColor=none;fillColor=none;" vertex="1" parent="1">
          <mxGeometry x="330" y="2148" width="30" height="30" as="geometry" />
        </mxCell>
        <mxCell id="8bt0EGpzoLc2UHUZODhH-220" value="" style="endArrow=none;html=1;rounded=0;entryX=1;entryY=0.5;entryDx=0;entryDy=0;exitX=1;exitY=0.5;exitDx=0;exitDy=0;" edge="1" parent="1" source="8bt0EGpzoLc2UHUZODhH-165" target="8bt0EGpzoLc2UHUZODhH-156">
          <mxGeometry width="50" height="50" relative="1" as="geometry">
            <mxPoint x="380" y="2930" as="sourcePoint" />
            <mxPoint x="430" y="2880" as="targetPoint" />
            <Array as="points">
              <mxPoint x="440" y="3107" />
              <mxPoint x="440" y="2783" />
            </Array>
          </mxGeometry>
        </mxCell>
        <mxCell id="8bt0EGpzoLc2UHUZODhH-221" value="n" style="text;html=1;align=center;verticalAlign=middle;resizable=0;points=[];autosize=1;strokeColor=none;fillColor=none;" vertex="1" parent="1">
          <mxGeometry x="295" y="3108" width="30" height="30" as="geometry" />
        </mxCell>
        <mxCell id="8bt0EGpzoLc2UHUZODhH-222" value="1" style="text;html=1;align=center;verticalAlign=middle;resizable=0;points=[];autosize=1;strokeColor=none;fillColor=none;" vertex="1" parent="1">
          <mxGeometry x="335" y="2738" width="30" height="30" as="geometry" />
        </mxCell>
        <mxCell id="8bt0EGpzoLc2UHUZODhH-223" value="" style="endArrow=none;html=1;rounded=0;entryX=0.619;entryY=1.192;entryDx=0;entryDy=0;entryPerimeter=0;" edge="1" parent="1" target="8bt0EGpzoLc2UHUZODhH-119">
          <mxGeometry width="50" height="50" relative="1" as="geometry">
            <mxPoint x="220" y="1920" as="sourcePoint" />
            <mxPoint x="420" y="1590" as="targetPoint" />
          </mxGeometry>
        </mxCell>
        <mxCell id="8bt0EGpzoLc2UHUZODhH-224" value="1" style="text;html=1;align=center;verticalAlign=middle;resizable=0;points=[];autosize=1;strokeColor=none;fillColor=none;" vertex="1" parent="1">
          <mxGeometry x="225" y="1780" width="30" height="30" as="geometry" />
        </mxCell>
        <mxCell id="8bt0EGpzoLc2UHUZODhH-225" value="n" style="text;html=1;align=center;verticalAlign=middle;resizable=0;points=[];autosize=1;strokeColor=none;fillColor=none;" vertex="1" parent="1">
          <mxGeometry x="225" y="1890" width="30" height="30" as="geometry" />
        </mxCell>
        <mxCell id="8bt0EGpzoLc2UHUZODhH-226" value="AccountController" style="swimlane;fontStyle=1;align=center;verticalAlign=top;childLayout=stackLayout;horizontal=1;startSize=26;horizontalStack=0;resizeParent=1;resizeParentMax=0;resizeLast=0;collapsible=1;marginBottom=0;whiteSpace=wrap;html=1;" vertex="1" parent="1">
          <mxGeometry x="510" y="1510" width="160" height="164" as="geometry" />
        </mxCell>
        <mxCell id="8bt0EGpzoLc2UHUZODhH-228" value="" style="line;strokeWidth=1;fillColor=none;align=left;verticalAlign=middle;spacingTop=-1;spacingLeft=3;spacingRight=3;rotatable=0;labelPosition=right;points=[];portConstraint=eastwest;strokeColor=inherit;" vertex="1" parent="8bt0EGpzoLc2UHUZODhH-226">
          <mxGeometry y="26" width="160" height="8" as="geometry" />
        </mxCell>
        <mxCell id="8bt0EGpzoLc2UHUZODhH-229" value="ActionResult Signin()" style="text;strokeColor=none;fillColor=none;align=left;verticalAlign=top;spacingLeft=4;spacingRight=4;overflow=hidden;rotatable=0;points=[[0,0.5],[1,0.5]];portConstraint=eastwest;whiteSpace=wrap;html=1;" vertex="1" parent="8bt0EGpzoLc2UHUZODhH-226">
          <mxGeometry y="34" width="160" height="26" as="geometry" />
        </mxCell>
        <mxCell id="8bt0EGpzoLc2UHUZODhH-230" value="ActionResult&amp;nbsp;Signup()" style="text;strokeColor=none;fillColor=none;align=left;verticalAlign=top;spacingLeft=4;spacingRight=4;overflow=hidden;rotatable=0;points=[[0,0.5],[1,0.5]];portConstraint=eastwest;whiteSpace=wrap;html=1;" vertex="1" parent="8bt0EGpzoLc2UHUZODhH-226">
          <mxGeometry y="60" width="160" height="26" as="geometry" />
        </mxCell>
        <mxCell id="8bt0EGpzoLc2UHUZODhH-231" value="ActionResult UserInfo()" style="text;strokeColor=none;fillColor=none;align=left;verticalAlign=top;spacingLeft=4;spacingRight=4;overflow=hidden;rotatable=0;points=[[0,0.5],[1,0.5]];portConstraint=eastwest;whiteSpace=wrap;html=1;" vertex="1" parent="8bt0EGpzoLc2UHUZODhH-226">
          <mxGeometry y="86" width="160" height="26" as="geometry" />
        </mxCell>
        <mxCell id="8bt0EGpzoLc2UHUZODhH-232" value="ActionResult EditInfo()" style="text;strokeColor=none;fillColor=none;align=left;verticalAlign=top;spacingLeft=4;spacingRight=4;overflow=hidden;rotatable=0;points=[[0,0.5],[1,0.5]];portConstraint=eastwest;whiteSpace=wrap;html=1;" vertex="1" parent="8bt0EGpzoLc2UHUZODhH-226">
          <mxGeometry y="112" width="160" height="26" as="geometry" />
        </mxCell>
        <mxCell id="8bt0EGpzoLc2UHUZODhH-233" value="ActionResult Logout()" style="text;strokeColor=none;fillColor=none;align=left;verticalAlign=top;spacingLeft=4;spacingRight=4;overflow=hidden;rotatable=0;points=[[0,0.5],[1,0.5]];portConstraint=eastwest;whiteSpace=wrap;html=1;" vertex="1" parent="8bt0EGpzoLc2UHUZODhH-226">
          <mxGeometry y="138" width="160" height="26" as="geometry" />
        </mxCell>
        <mxCell id="8bt0EGpzoLc2UHUZODhH-235" value="" style="endArrow=none;html=1;rounded=0;exitX=1.006;exitY=0;exitDx=0;exitDy=0;exitPerimeter=0;entryX=0;entryY=0.846;entryDx=0;entryDy=0;entryPerimeter=0;" edge="1" parent="1" source="8bt0EGpzoLc2UHUZODhH-112" target="8bt0EGpzoLc2UHUZODhH-230">
          <mxGeometry width="50" height="50" relative="1" as="geometry">
            <mxPoint x="380" y="1610" as="sourcePoint" />
            <mxPoint x="430" y="1560" as="targetPoint" />
          </mxGeometry>
        </mxCell>
        <mxCell id="8bt0EGpzoLc2UHUZODhH-236" value="1" style="text;html=1;align=center;verticalAlign=middle;resizable=0;points=[];autosize=1;strokeColor=none;fillColor=none;" vertex="1" parent="1">
          <mxGeometry x="285" y="1548" width="30" height="30" as="geometry" />
        </mxCell>
        <mxCell id="8bt0EGpzoLc2UHUZODhH-237" value="1" style="text;html=1;align=center;verticalAlign=middle;resizable=0;points=[];autosize=1;strokeColor=none;fillColor=none;" vertex="1" parent="1">
          <mxGeometry x="475" y="1548" width="30" height="30" as="geometry" />
        </mxCell>
        <mxCell id="8bt0EGpzoLc2UHUZODhH-238" value="CareerController" style="swimlane;fontStyle=1;align=center;verticalAlign=top;childLayout=stackLayout;horizontal=1;startSize=26;horizontalStack=0;resizeParent=1;resizeParentMax=0;resizeLast=0;collapsible=1;marginBottom=0;whiteSpace=wrap;html=1;" vertex="1" parent="1">
          <mxGeometry x="105" y="-50" width="190" height="86" as="geometry" />
        </mxCell>
        <mxCell id="8bt0EGpzoLc2UHUZODhH-240" value="" style="line;strokeWidth=1;fillColor=none;align=left;verticalAlign=middle;spacingTop=-1;spacingLeft=3;spacingRight=3;rotatable=0;labelPosition=right;points=[];portConstraint=eastwest;strokeColor=inherit;" vertex="1" parent="8bt0EGpzoLc2UHUZODhH-238">
          <mxGeometry y="26" width="190" height="8" as="geometry" />
        </mxCell>
        <mxCell id="8bt0EGpzoLc2UHUZODhH-241" value="Actionresult Apply(): load các job" style="text;strokeColor=none;fillColor=none;align=left;verticalAlign=top;spacingLeft=4;spacingRight=4;overflow=hidden;rotatable=0;points=[[0,0.5],[1,0.5]];portConstraint=eastwest;whiteSpace=wrap;html=1;" vertex="1" parent="8bt0EGpzoLc2UHUZODhH-238">
          <mxGeometry y="34" width="190" height="26" as="geometry" />
        </mxCell>
        <mxCell id="8bt0EGpzoLc2UHUZODhH-245" value="Actionresult Apply(): đk việc làm" style="text;strokeColor=none;fillColor=none;align=left;verticalAlign=top;spacingLeft=4;spacingRight=4;overflow=hidden;rotatable=0;points=[[0,0.5],[1,0.5]];portConstraint=eastwest;whiteSpace=wrap;html=1;" vertex="1" parent="8bt0EGpzoLc2UHUZODhH-238">
          <mxGeometry y="60" width="190" height="26" as="geometry" />
        </mxCell>
        <mxCell id="8bt0EGpzoLc2UHUZODhH-243" value="" style="endArrow=none;html=1;rounded=0;exitX=0.5;exitY=0;exitDx=0;exitDy=0;entryX=0.305;entryY=1.038;entryDx=0;entryDy=0;entryPerimeter=0;" edge="1" parent="1" source="8bt0EGpzoLc2UHUZODhH-1" target="8bt0EGpzoLc2UHUZODhH-245">
          <mxGeometry width="50" height="50" relative="1" as="geometry">
            <mxPoint x="10" y="340" as="sourcePoint" />
            <mxPoint x="60" y="290" as="targetPoint" />
          </mxGeometry>
        </mxCell>
        <mxCell id="8bt0EGpzoLc2UHUZODhH-244" value="" style="endArrow=none;html=1;rounded=0;exitX=0.621;exitY=1.077;exitDx=0;exitDy=0;exitPerimeter=0;entryX=0.331;entryY=-0.002;entryDx=0;entryDy=0;entryPerimeter=0;" edge="1" parent="1" source="8bt0EGpzoLc2UHUZODhH-245" target="8bt0EGpzoLc2UHUZODhH-55">
          <mxGeometry width="50" height="50" relative="1" as="geometry">
            <mxPoint x="370" y="320" as="sourcePoint" />
            <mxPoint x="420" y="270" as="targetPoint" />
          </mxGeometry>
        </mxCell>
        <mxCell id="8bt0EGpzoLc2UHUZODhH-246" value="EstateController" style="swimlane;fontStyle=1;align=center;verticalAlign=top;childLayout=stackLayout;horizontal=1;startSize=26;horizontalStack=0;resizeParent=1;resizeParentMax=0;resizeLast=0;collapsible=1;marginBottom=0;whiteSpace=wrap;html=1;" vertex="1" parent="1">
          <mxGeometry x="515" y="2550" width="200" height="210" as="geometry" />
        </mxCell>
        <mxCell id="8bt0EGpzoLc2UHUZODhH-248" value="" style="line;strokeWidth=1;fillColor=none;align=left;verticalAlign=middle;spacingTop=-1;spacingLeft=3;spacingRight=3;rotatable=0;labelPosition=right;points=[];portConstraint=eastwest;strokeColor=inherit;" vertex="1" parent="8bt0EGpzoLc2UHUZODhH-246">
          <mxGeometry y="26" width="200" height="8" as="geometry" />
        </mxCell>
        <mxCell id="8bt0EGpzoLc2UHUZODhH-249" value="+ActionResult Index()" style="text;strokeColor=none;fillColor=none;align=left;verticalAlign=top;spacingLeft=4;spacingRight=4;overflow=hidden;rotatable=0;points=[[0,0.5],[1,0.5]];portConstraint=eastwest;whiteSpace=wrap;html=1;" vertex="1" parent="8bt0EGpzoLc2UHUZODhH-246">
          <mxGeometry y="34" width="200" height="26" as="geometry" />
        </mxCell>
        <mxCell id="8bt0EGpzoLc2UHUZODhH-255" value="+ActionResult FilterbyName()" style="text;strokeColor=none;fillColor=none;align=left;verticalAlign=top;spacingLeft=4;spacingRight=4;overflow=hidden;rotatable=0;points=[[0,0.5],[1,0.5]];portConstraint=eastwest;whiteSpace=wrap;html=1;" vertex="1" parent="8bt0EGpzoLc2UHUZODhH-246">
          <mxGeometry y="60" width="200" height="20" as="geometry" />
        </mxCell>
        <mxCell id="8bt0EGpzoLc2UHUZODhH-256" value="+ActionResult FilterbyType()" style="text;strokeColor=none;fillColor=none;align=left;verticalAlign=top;spacingLeft=4;spacingRight=4;overflow=hidden;rotatable=0;points=[[0,0.5],[1,0.5]];portConstraint=eastwest;whiteSpace=wrap;html=1;" vertex="1" parent="8bt0EGpzoLc2UHUZODhH-246">
          <mxGeometry y="80" width="200" height="26" as="geometry" />
        </mxCell>
        <mxCell id="8bt0EGpzoLc2UHUZODhH-257" value="+ActionResult FilterbyCity()" style="text;strokeColor=none;fillColor=none;align=left;verticalAlign=top;spacingLeft=4;spacingRight=4;overflow=hidden;rotatable=0;points=[[0,0.5],[1,0.5]];portConstraint=eastwest;whiteSpace=wrap;html=1;" vertex="1" parent="8bt0EGpzoLc2UHUZODhH-246">
          <mxGeometry y="106" width="200" height="26" as="geometry" />
        </mxCell>
        <mxCell id="8bt0EGpzoLc2UHUZODhH-258" value="+ActionResult FilterbyProject()" style="text;strokeColor=none;fillColor=none;align=left;verticalAlign=top;spacingLeft=4;spacingRight=4;overflow=hidden;rotatable=0;points=[[0,0.5],[1,0.5]];portConstraint=eastwest;whiteSpace=wrap;html=1;" vertex="1" parent="8bt0EGpzoLc2UHUZODhH-246">
          <mxGeometry y="132" width="200" height="26" as="geometry" />
        </mxCell>
        <mxCell id="8bt0EGpzoLc2UHUZODhH-259" value="+ActionResult AdvanceSearch()" style="text;strokeColor=none;fillColor=none;align=left;verticalAlign=top;spacingLeft=4;spacingRight=4;overflow=hidden;rotatable=0;points=[[0,0.5],[1,0.5]];portConstraint=eastwest;whiteSpace=wrap;html=1;" vertex="1" parent="8bt0EGpzoLc2UHUZODhH-246">
          <mxGeometry y="158" width="200" height="26" as="geometry" />
        </mxCell>
        <mxCell id="8bt0EGpzoLc2UHUZODhH-260" value="+ActionResult Detail()" style="text;strokeColor=none;fillColor=none;align=left;verticalAlign=top;spacingLeft=4;spacingRight=4;overflow=hidden;rotatable=0;points=[[0,0.5],[1,0.5]];portConstraint=eastwest;whiteSpace=wrap;html=1;" vertex="1" parent="8bt0EGpzoLc2UHUZODhH-246">
          <mxGeometry y="184" width="200" height="26" as="geometry" />
        </mxCell>
        <mxCell id="8bt0EGpzoLc2UHUZODhH-250" value="1" style="text;html=1;align=center;verticalAlign=middle;resizable=0;points=[];autosize=1;strokeColor=none;fillColor=none;" vertex="1" parent="1">
          <mxGeometry x="-105" y="288" width="30" height="30" as="geometry" />
        </mxCell>
        <mxCell id="8bt0EGpzoLc2UHUZODhH-251" value="1" style="text;html=1;align=center;verticalAlign=middle;resizable=0;points=[];autosize=1;strokeColor=none;fillColor=none;" vertex="1" parent="1">
          <mxGeometry x="95" y="40" width="30" height="30" as="geometry" />
        </mxCell>
        <mxCell id="8bt0EGpzoLc2UHUZODhH-252" value="1" style="text;html=1;align=center;verticalAlign=middle;resizable=0;points=[];autosize=1;strokeColor=none;fillColor=none;" vertex="1" parent="1">
          <mxGeometry x="265" y="50" width="30" height="30" as="geometry" />
        </mxCell>
        <mxCell id="8bt0EGpzoLc2UHUZODhH-253" value="1" style="text;html=1;align=center;verticalAlign=middle;resizable=0;points=[];autosize=1;strokeColor=none;fillColor=none;" vertex="1" parent="1">
          <mxGeometry x="455" y="298" width="30" height="30" as="geometry" />
        </mxCell>
        <mxCell id="8bt0EGpzoLc2UHUZODhH-254" value="" style="endArrow=none;html=1;rounded=0;exitX=1.024;exitY=-0.231;exitDx=0;exitDy=0;exitPerimeter=0;entryX=0;entryY=0.5;entryDx=0;entryDy=0;" edge="1" parent="1" source="8bt0EGpzoLc2UHUZODhH-149">
          <mxGeometry width="50" height="50" relative="1" as="geometry">
            <mxPoint x="370" y="2600" as="sourcePoint" />
            <mxPoint x="515" y="2589" as="targetPoint" />
          </mxGeometry>
        </mxCell>
        <mxCell id="8bt0EGpzoLc2UHUZODhH-261" value="Booking" style="swimlane;fontStyle=1;align=center;verticalAlign=top;childLayout=stackLayout;horizontal=1;startSize=26;horizontalStack=0;resizeParent=1;resizeParentMax=0;resizeLast=0;collapsible=1;marginBottom=0;whiteSpace=wrap;html=1;" vertex="1" parent="1">
          <mxGeometry x="-230" y="1170" width="160" height="60" as="geometry" />
        </mxCell>
        <mxCell id="8bt0EGpzoLc2UHUZODhH-263" value="" style="line;strokeWidth=1;fillColor=none;align=left;verticalAlign=middle;spacingTop=-1;spacingLeft=3;spacingRight=3;rotatable=0;labelPosition=right;points=[];portConstraint=eastwest;strokeColor=inherit;" vertex="1" parent="8bt0EGpzoLc2UHUZODhH-261">
          <mxGeometry y="26" width="160" height="8" as="geometry" />
        </mxCell>
        <mxCell id="8bt0EGpzoLc2UHUZODhH-264" value="+ ActionResult Book()&amp;nbsp;" style="text;strokeColor=none;fillColor=none;align=left;verticalAlign=top;spacingLeft=4;spacingRight=4;overflow=hidden;rotatable=0;points=[[0,0.5],[1,0.5]];portConstraint=eastwest;whiteSpace=wrap;html=1;" vertex="1" parent="8bt0EGpzoLc2UHUZODhH-261">
          <mxGeometry y="34" width="160" height="26" as="geometry" />
        </mxCell>
        <mxCell id="8bt0EGpzoLc2UHUZODhH-266" value="" style="endArrow=none;html=1;rounded=0;entryX=0;entryY=0.5;entryDx=0;entryDy=0;" edge="1" parent="1" target="8bt0EGpzoLc2UHUZODhH-34">
          <mxGeometry width="50" height="50" relative="1" as="geometry">
            <mxPoint x="-120" y="1170" as="sourcePoint" />
            <mxPoint x="30" y="230" as="targetPoint" />
            <Array as="points">
              <mxPoint x="-120" y="1100" />
              <mxPoint x="40" y="1100" />
              <mxPoint x="40" y="441" />
            </Array>
          </mxGeometry>
        </mxCell>
        <mxCell id="8bt0EGpzoLc2UHUZODhH-267" value="1" style="text;html=1;align=center;verticalAlign=middle;resizable=0;points=[];autosize=1;strokeColor=none;fillColor=none;" vertex="1" parent="1">
          <mxGeometry x="-110" y="1130" width="30" height="30" as="geometry" />
        </mxCell>
        <mxCell id="8bt0EGpzoLc2UHUZODhH-268" value="1" style="text;html=1;align=center;verticalAlign=middle;resizable=0;points=[];autosize=1;strokeColor=none;fillColor=none;" vertex="1" parent="1">
          <mxGeometry x="85" y="450" width="30" height="30" as="geometry" />
        </mxCell>
      </root>
    </mxGraphModel>
  </diagram>
</mxfile>
